<svg width="25" height="24" viewBox="0 0 25 24" fill="none" xmlns="http://www.w3.org/2000/svg">
<path d="M3.99987 22C3.49987 22 2.99987 21.9 2.49987 21.6C1.09987 20.8 0.599865 18.9 1.39987 17.5L9.89986 3.30002C10.1999 2.90002 10.4999 2.50002 10.8999 2.30002C11.5999 1.90002 12.3999 1.80002 13.1999 2.00002C13.9999 2.20002 14.5999 2.70002 15.0999 3.40002L23.4999 17.5C23.7999 18 23.8999 18.5 23.8999 19C23.8999 19.8 23.5999 20.6 22.9999 21.1C22.4999 21.7 21.7999 22 20.9999 22H3.99987ZM11.5999 4.40002L3.19987 18.5C2.89987 19 3.09986 19.6 3.59986 19.9C3.69986 20 3.89987 20 3.99987 20H20.8999C21.1999 20 21.3999 19.9 21.5999 19.7C21.7999 19.5 21.8999 19.3 21.8999 19C21.8999 18.8 21.8999 18.7 21.7999 18.5L13.3999 4.40002C13.0999 3.90002 12.4999 3.80002 11.9999 4.00002C11.7999 4.10002 11.6999 4.20002 11.5999 4.40002Z" fill="#FB8C00"/>
<path d="M12.4999 14C11.8999 14 11.4999 13.6 11.4999 13V9.00002C11.4999 8.40002 11.8999 8.00002 12.4999 8.00002C13.0999 8.00002 13.4999 8.40002 13.4999 9.00002V13C13.4999 13.6 13.0999 14 12.4999 14Z" fill="#FB8C00"/>
<path d="M12.4999 18C12.1999 18 11.9999 17.9 11.7999 17.7C11.5999 17.5 11.4999 17.3 11.4999 17C11.4999 16.9 11.4999 16.7 11.5999 16.6C11.6999 16.5 11.6999 16.4 11.7999 16.3C11.8999 16.2 11.9999 16.1 12.0999 16.1C12.2999 16 12.4999 16 12.6999 16C12.7999 16 12.7999 16 12.8999 16.1C12.9999 16.1 12.9999 16.1 13.0999 16.2C13.0999 16.2 13.1999 16.3 13.2999 16.3C13.3999 16.4 13.4999 16.5 13.4999 16.6C13.4999 16.7 13.5999 16.9 13.5999 17C13.5999 17.3 13.4999 17.5 13.2999 17.7C12.9999 17.9 12.7999 18 12.4999 18Z" fill="#FB8C00"/>
</svg>
