<svg width="16" height="16" viewBox="0 0 16 16" fill="none" xmlns="http://www.w3.org/2000/svg">
<path fill-rule="evenodd" clip-rule="evenodd" d="M3.54545 10.1875V11.4375C3.54545 11.61 3.688 11.75 3.86364 11.75H12.1364C12.312 11.75 12.4545 11.61 12.4545 11.4375V10.1875C12.4545 9.32594 11.7409 8.625 10.8636 8.625H5.13636C4.25914 8.625 3.54545 9.32594 3.54545 10.1875ZM11.8182 10.1875V11.125H4.18182V10.1875C4.18182 9.67062 4.61009 9.25 5.13636 9.25H10.8636C11.3899 9.25 11.8182 9.67062 11.8182 10.1875ZM5.45455 15.1875C5.45455 15.36 5.312 15.5 5.13636 15.5H3.22727C3.05164 15.5 2.90909 15.36 2.90909 15.1875C2.90909 15.015 3.05164 14.875 3.22727 14.875H5.13636C5.312 14.875 5.45455 15.015 5.45455 15.1875ZM13.0909 15.1875C13.0909 15.36 12.9484 15.5 12.7727 15.5H10.8636C10.688 15.5 10.5455 15.36 10.5455 15.1875C10.5455 15.015 10.688 14.875 10.8636 14.875H12.7727C12.9484 14.875 13.0909 15.015 13.0909 15.1875ZM2.90909 5.35531V2.6875C2.90909 1.77781 3.41055 1.15219 4.39945 0.828437C4.41186 0.824375 4.42459 0.820938 4.43764 0.81875C4.50382 0.805625 6.08136 0.5 8 0.5C9.91864 0.5 11.4962 0.805625 11.5624 0.81875C11.5754 0.820938 11.5881 0.824375 11.6005 0.828437C12.5895 1.15219 13.0909 1.77781 13.0909 2.6875V5.35531C13.0909 5.52781 12.9484 5.66781 12.7727 5.66781C12.5971 5.66781 12.4545 5.52781 12.4545 5.35531V2.6875C12.4545 2.26188 12.3362 1.735 11.4185 1.42781C11.234 1.39312 9.74236 1.125 8 1.125C6.25764 1.125 4.766 1.39312 4.58145 1.42781C3.66382 1.735 3.54545 2.26188 3.54545 2.6875V5.35531C3.54545 5.52781 3.40291 5.66781 3.22727 5.66781C3.05164 5.66781 2.90909 5.52781 2.90909 5.35531ZM15 7.6875V12.6875C15 13.5491 14.2863 14.25 13.4091 14.25H2.59091C1.71368 14.25 1 13.5491 1 12.6875V7.6875C1 6.81125 1.69873 6.125 2.59091 6.125C3.48309 6.125 4.18182 6.81125 4.18182 7.6875V8.15625C4.18182 8.32875 4.03927 8.46875 3.86364 8.46875C3.688 8.46875 3.54545 8.32875 3.54545 8.15625V7.6875C3.54545 7.15312 3.135 6.75 2.59091 6.75C2.04682 6.75 1.63636 7.15312 1.63636 7.6875V12.6875C1.63636 13.2044 2.06464 13.625 2.59091 13.625H13.4091C13.9354 13.625 14.3636 13.2044 14.3636 12.6875V7.6875C14.3636 7.15312 13.9532 6.75 13.4091 6.75C12.865 6.75 12.4545 7.15312 12.4545 7.6875V8.15625C12.4545 8.32875 12.312 8.46875 12.1364 8.46875C11.9607 8.46875 11.8182 8.32875 11.8182 8.15625V7.6875C11.8182 6.81125 12.5169 6.125 13.4091 6.125C14.3013 6.125 15 6.81125 15 7.6875Z" fill="#888FB2" stroke="#888FB2"/>
</svg>
