<svg width="18" height="18" viewBox="0 0 18 18" fill="none" xmlns="http://www.w3.org/2000/svg">
<path d="M8.77319 14.9729L8.12819 14.3279C7.24319 13.4429 7.25069 12.0029 8.14319 11.1329L8.77319 10.5179C8.48069 10.4879 8.26319 10.4729 8.02319 10.4729C6.02069 10.4729 2.02319 11.4779 2.02319 13.4729V14.9729H8.77319ZM8.02319 8.9729C9.68069 8.9729 11.0232 7.6304 11.0232 5.9729C11.0232 4.3154 9.68069 2.9729 8.02319 2.9729C6.36569 2.9729 5.02319 4.3154 5.02319 5.9729C5.02319 7.6304 6.36569 8.9729 8.02319 8.9729Z" fill="#1A2038"/>
<path d="M11.9082 14.8079C11.6157 15.1004 11.1357 15.1004 10.8432 14.8079L9.29069 13.2404C9.00569 12.9479 9.00569 12.4829 9.29069 12.1979L9.29819 12.1904C9.59069 11.8979 10.0632 11.8979 10.3482 12.1904L11.3757 13.2179L14.6982 9.8729C14.9907 9.5804 15.4632 9.5804 15.7557 9.8729L15.7632 9.8804C16.0482 10.1729 16.0482 10.6379 15.7632 10.9229L11.9082 14.8079Z" fill="#1A2038"/>
</svg>
