<svg width="19" height="18" viewBox="0 0 19 18" fill="none" xmlns="http://www.w3.org/2000/svg">
<path d="M10.25 8.68934V5.25H8.75V8.68934C8.75 9.08716 8.90804 9.4687 9.18934 9.75L11.5947 12.1553L12.6553 11.0947L10.25 8.68934Z" fill="#888FB2"/>
<path fill-rule="evenodd" clip-rule="evenodd" d="M9.5 16.5C5.35786 16.5 2 13.1421 2 9C2 4.85786 5.35786 1.5 9.5 1.5C13.6421 1.5 17 4.85786 17 9C17 13.1421 13.6421 16.5 9.5 16.5ZM9.5 15C12.8137 15 15.5 12.3137 15.5 9C15.5 5.68629 12.8137 3 9.5 3C6.18629 3 3.5 5.68629 3.5 9C3.5 12.3137 6.18629 15 9.5 15Z" fill="#888FB2"/>
</svg>
