<svg width="18" height="18" viewBox="0 0 18 18" fill="none" xmlns="http://www.w3.org/2000/svg">
<path d="M5.84966 9.99899L7.97216 7.87649L3.32966 3.24149C2.96966 2.88149 2.34716 2.97899 2.12216 3.44399C1.58966 4.56149 1.78466 5.93399 2.70716 6.86399L5.84966 9.99899ZM10.9347 8.64149C12.0822 9.17399 13.6947 8.79899 14.8872 7.60649C16.3197 6.17399 16.5972 4.11899 15.4947 3.01649C14.3997 1.92149 12.3447 2.19149 10.9047 3.62399C9.71216 4.81649 9.33716 6.42899 9.86966 7.57649L3.08216 14.364C2.78966 14.6565 2.78966 15.129 3.08216 15.4215C3.37466 15.714 3.84716 15.714 4.13966 15.4215L8.77466 10.8015L13.4097 15.4365C13.7022 15.729 14.1747 15.729 14.4672 15.4365C14.7597 15.144 14.7597 14.6715 14.4672 14.379L9.83216 9.74399L10.9347 8.64149Z" fill="black"/>
</svg>
