<svg width="25" height="25" viewBox="0 0 25 25" fill="none" xmlns="http://www.w3.org/2000/svg">
<path d="M7.5 12.5C7.5 13.05 7.95 13.5 8.5 13.5H16.5C17.05 13.5 17.5 13.05 17.5 12.5C17.5 11.95 17.05 11.5 16.5 11.5H8.5C7.95 11.5 7.5 11.95 7.5 12.5ZM12.5 2.5C6.98 2.5 2.5 6.98 2.5 12.5C2.5 18.02 6.98 22.5 12.5 22.5C18.02 22.5 22.5 18.02 22.5 12.5C22.5 6.98 18.02 2.5 12.5 2.5ZM12.5 20.5C8.09 20.5 4.5 16.91 4.5 12.5C4.5 8.09 8.09 4.5 12.5 4.5C16.91 4.5 20.5 8.09 20.5 12.5C20.5 16.91 16.91 20.5 12.5 20.5Z" fill="#F44336"/>
</svg>
