<svg width="24" height="24" viewBox="0 0 24 24" fill="none" xmlns="http://www.w3.org/2000/svg">
<path d="M15 16.0013L11 20.0013H19C20.1 20.0013 21 19.1013 21 18.0013C21 16.9013 20.1 16.0013 19 16.0013H15Z" fill="#23B3F2"/>
<path d="M12.06 7.19128L3.29 15.9613C3.11 16.1413 3 16.4013 3 16.6613V19.0013C3 19.5513 3.45 20.0013 4 20.0013H6.34C6.61 20.0013 6.86 19.8913 7.05 19.7113L15.82 10.9413L12.06 7.19128Z" fill="#23B3F2"/>
<path d="M18.71 8.04128C19.1 7.65128 19.1 7.02128 18.71 6.63128L16.37 4.29128C15.98 3.90128 15.35 3.90128 14.96 4.29128L13.13 6.12128L16.88 9.87128L18.71 8.04128Z" fill="#23B3F2"/>
</svg>
