<svg width="24" height="24" viewBox="0 0 24 24" fill="none" xmlns="http://www.w3.org/2000/svg">
<path d="M13.17 2.00003H6C4.9 2.00003 4 2.90003 4 4.00003V20C4 21.1 4.9 22 6 22H18C19.1 22 20 21.1 20 20V8.83003C20 8.30003 19.79 7.79003 19.41 7.42003L14.58 2.59003C14.21 2.21003 13.7 2.00003 13.17 2.00003ZM16 15C16 17.34 13.99 19.21 11.61 18.98C9.53 18.78 8 16.92 8 14.83V9.64003C8 8.33003 8.94 7.14003 10.24 7.01003C11.74 6.86003 13 8.03003 13 9.50003V14C13 14.55 12.55 15 12 15C11.45 15 11 14.55 11 14V9.50003C11 9.22003 10.78 9.00003 10.5 9.00003C10.22 9.00003 10 9.22003 10 9.50003V14.89C10 15.89 10.68 16.81 11.66 16.97C12.92 17.18 14 16.21 14 15V12C14 11.45 14.45 11 15 11C15.55 11 16 11.45 16 12V15ZM14 7.00003V4.00003L18 8.00003H15C14.45 8.00003 14 7.55003 14 7.00003Z" fill="#23B3F2"/>
</svg>
