<svg width="16" height="16" viewBox="0 0 16 16" fill="none" xmlns="http://www.w3.org/2000/svg">
<path d="M12.9878 8.40107C11.9412 5.68107 8.21451 5.53441 9.11451 1.58107C9.18118 1.28774 8.86785 1.06107 8.61451 1.21441C6.19451 2.64107 4.45451 5.50107 5.91451 9.24774C6.03451 9.55441 5.67451 9.84107 5.41451 9.64107C4.20785 8.72774 4.08118 7.41441 4.18785 6.47441C4.22785 6.12774 3.77451 5.96107 3.58118 6.24774C3.12785 6.94107 2.66785 8.06107 2.66785 9.74774C2.92118 13.4811 6.07451 14.6277 7.20785 14.7744C8.82785 14.9811 10.5812 14.6811 11.8412 13.5277C13.2278 12.2411 13.7345 10.1877 12.9878 8.40107ZM6.80118 11.7544C7.76118 11.5211 8.25451 10.8277 8.38785 10.2144C8.60785 9.26107 7.74785 8.32774 8.32785 6.82107C8.54785 8.06774 10.5078 8.84774 10.5078 10.2077C10.5612 11.8944 8.73451 13.3411 6.80118 11.7544Z" fill="#F44336"/>
</svg>
