<svg width="323" height="60" viewBox="0 0 323 60" fill="none" xmlns="http://www.w3.org/2000/svg">
<path d="M41.3248 2.03125V11.25H20.0899C18.0081 11.25 16.2385 11.5104 14.8332 11.9792C13.428 12.4479 12.283 13.0729 11.4502 13.9063C10.6175 14.7396 10.045 15.6771 9.68063 16.7188C9.31631 17.8125 9.16017 18.9583 9.16017 20.2083V25.2083H40.9605V33.9583H9.21221V54.8438H0V20.2604C0 17.6042 0.364325 15.1563 1.04093 12.9688C1.76958 10.7292 2.86255 8.85417 4.42394 7.23958C5.98534 5.625 8.01515 4.375 10.4613 3.4375C12.9596 2.55208 15.9262 2.08333 19.4133 2.08333H41.3248V2.03125Z" fill="#001449"/>
<path d="M63.6528 2.03125V36.5104C63.6528 37.7604 63.8089 38.9583 64.1733 40.0521C64.5376 41.1979 65.1101 42.1354 65.9428 42.9688C66.7756 43.8021 67.8685 44.4271 69.2738 44.8958C70.6791 45.3646 72.3966 45.625 74.4784 45.625H94.9327V54.8438H73.9059C70.4188 54.8438 67.4522 54.375 64.9539 53.4896C62.4557 52.6042 60.478 51.3021 58.9166 49.6875C57.3552 48.0729 56.2101 46.1458 55.5335 43.9583C54.8049 41.7188 54.4926 39.3229 54.4926 36.6667V2.03125H63.6528Z" fill="#001449"/>
<path d="M183.88 2.03125C191.635 2.03125 197.516 4.21875 201.576 8.54167C205.635 12.8646 207.613 19.5312 207.613 28.4896C207.613 37.3958 205.583 44.0104 201.576 48.3333C197.516 52.6563 191.635 54.8438 183.88 54.8438H165.299C162.385 54.8438 160.927 53.3854 160.927 50.5208V6.35417C160.927 3.48958 162.385 2.03125 165.299 2.03125H183.88ZM170.088 44.6354C170.088 45.2604 170.4 45.5729 171.129 45.5729H183.88C188.98 45.5729 192.676 44.2188 194.966 41.5104C197.256 38.8021 198.401 34.4271 198.401 28.3854C198.401 22.3438 197.256 17.9688 195.018 15.3125C192.728 12.6042 189.033 11.3021 183.88 11.3021H171.129C170.452 11.3021 170.088 11.6146 170.088 12.2396V44.6354Z" fill="#001449"/>
<path d="M224.736 54.8437H214.587L233.116 7.91659C234.105 5.41659 235.51 3.64575 237.28 2.65617C239.049 1.66659 241.391 1.14575 244.202 1.14575C246.96 1.14575 249.25 1.66659 251.02 2.65617C252.789 3.69784 254.195 5.41659 255.132 7.91659L272.931 54.8437H262.678L246.7 12.3437C246.232 11.1458 245.347 10.5208 244.098 10.5208C242.849 10.5208 241.964 11.1458 241.443 12.3437L224.736 54.8437Z" fill="#001449"/>
<path d="M282.352 2.03125L297.133 24.6354L312.07 2.03125H323L301.765 32.0312V54.7917H292.449V32.0833L271.162 2.03125H282.352Z" fill="#001449"/>
<path d="M136.049 24.4271L151.767 2.1875H140.838L132.146 15.3646V22.1354L136.049 24.4271Z" fill="#001449"/>
<path d="M119.499 22.1875V15.0521L111.119 2.1875H99.9291L115.647 24.4271L119.499 22.1875Z" fill="#001449"/>
<path d="M129.127 24.3229L129.075 24.2708V10.9896C129.075 10 129.075 9.11458 129.075 8.48958V8.4375C129.075 8.17708 129.075 7.91667 129.075 7.65625C129.075 7.65625 129.075 7.65625 129.075 7.60417C129.075 1.40625 125.952 0 125.952 0C125.952 0 125.952 0 125.9 0L125.848 0.0520833C125.848 0.0520833 125.848 0.0520833 125.796 0.0520833C125.796 0.0520833 125.744 0.104167 125.692 0.104167C125.64 0.104167 125.64 0.15625 125.588 0.208333C124.755 0.885417 122.777 2.96875 122.777 8.38542C122.777 8.75 122.725 9.0625 122.725 9.47917V24.2188L100.918 36.875V40.4688L106.955 38.6979L113.097 36.9271L116.844 35.8333L117.989 35.4688L120.852 34.6354H122.777V34.6875L123.246 38.0729H122.517V37.6563V37.6042V36.8229H119.342V38.5938C119.342 38.8021 119.342 38.9583 119.342 39.1667C119.342 40.1562 119.394 41.6146 119.446 42.1875C119.446 42.3958 119.551 42.8125 119.603 43.2292C119.707 43.9063 119.863 44.5833 120.019 45.3125C120.123 45.8854 120.227 46.3021 120.227 46.3021C120.227 46.3021 120.227 46.4583 120.331 46.5625C120.383 46.6667 120.487 46.6667 120.592 46.6667C120.904 46.6667 121.268 46.6667 121.58 46.6667H121.632H121.945L121.997 46.5625C122.049 46.5104 122.049 46.4583 122.101 46.4063L122.205 46.1979L123.09 46.7708C123.402 46.9792 123.714 47.1875 124.027 47.3958L124.807 51.3021L115.959 57.3958V60L125.744 56.9271L135.529 60V57.3958L126.681 51.3021L127.41 47.6042L127.462 47.3958L129.283 46.1979L129.543 46.6667H130.949C131.261 46.6667 131.313 46.3021 131.313 46.3021C131.313 46.3021 132.042 43.125 132.146 42.2396C132.146 42.1354 132.146 41.9792 132.198 41.7708V41.7188C132.25 40.8333 132.25 40.3125 132.25 40.3125V39.9479V36.875H129.075V37.5521C129.075 37.6563 129.075 38.125 129.075 38.125H128.346L128.815 34.6875H130.741L133.655 35.5208L134.8 35.8333L138.912 37.0313L140.005 37.3438L143.544 38.3854L150.674 40.4688V36.875L129.127 24.3229Z" fill="#144DDE"/>
</svg>
