<svg width="199" height="60" viewBox="0 0 199 60" fill="none" xmlns="http://www.w3.org/2000/svg">
<path d="M47.3461 8.26185C41.2186 2.73589 33.3366 0 23.673 0H0C2.34841 13.842 21.2167 27.7111 29.6655 27.7111C32.8777 27.7111 42.4873 27.7111 42.4873 27.7111C46.6442 27.7111 48.1829 28.8488 48.1829 29.9865C48.1829 31.1242 46.6442 32.2618 42.5413 32.2618C42.5413 32.2618 32.9047 32.2618 29.6925 32.2618C21.2167 32.2889 2.34841 46.158 0 60H23.673C33.3366 60 41.2456 57.2641 47.3461 51.7381C53.4465 46.2122 56.4968 38.763 56.4968 29.9865C56.4968 21.237 53.4465 13.7878 47.3461 8.26185ZM30.1514 26.9526L29.5306 23.8916L25.7245 16.2799H28.0189L37.5745 26.9526H30.1514ZM28.0459 43.7201H25.7515L29.5576 36.1083L30.1784 33.0474H37.6285L28.0459 43.7201Z" fill="#144DDE"/>
<path d="M68.4968 42.307V13.4465H87.8175V18.894H74.9889V24.9418H86.3946V30.3893H74.9889V42.307H68.4968Z" fill="#001449"/>
<path d="M100.313 42.7293C98.5121 42.7071 97.0446 42.507 95.9107 42.1512C94.7767 41.7954 93.8873 41.2841 93.2425 40.6393C92.5977 39.9944 92.153 39.194 91.9084 38.2601C91.6638 37.3263 91.5527 36.2813 91.5527 35.1251V13.224L97.7561 10V33.8577C97.7561 34.4136 97.8006 34.9027 97.8895 35.3474C97.9785 35.7921 98.1341 36.1701 98.3787 36.4814C98.6233 36.7927 98.9568 37.0372 99.4015 37.2374C99.8462 37.4375 100.447 37.5486 101.202 37.6153L100.313 42.7293Z" fill="#001449"/>
<path d="M123.346 20.4058C122.101 24.6303 120.789 28.5881 119.411 32.279C118.055 35.97 116.565 39.5497 114.942 43.0183C114.364 44.2634 113.764 45.3307 113.186 46.1979C112.608 47.065 111.963 47.7987 111.274 48.3546C110.584 48.9327 109.784 49.3329 108.917 49.5998C108.05 49.8666 107.027 50 105.849 50C104.87 50 103.981 49.911 103.158 49.7332C102.336 49.5553 101.669 49.3552 101.135 49.1328L102.225 44.1745C102.869 44.3969 103.425 44.5525 103.937 44.6414C104.426 44.7304 104.959 44.7748 105.515 44.7748C106.627 44.7748 107.472 44.4858 108.072 43.8855C108.672 43.2851 109.184 42.4625 109.584 41.4174C108.161 38.6381 106.76 35.5253 105.337 32.0789C103.914 28.6326 102.58 24.7415 101.335 20.428H107.916C108.205 21.5175 108.517 22.6737 108.895 23.9411C109.273 25.2084 109.673 26.4758 110.095 27.7654C110.518 29.055 110.94 30.3224 111.363 31.5453C111.785 32.7682 112.207 33.8799 112.608 34.8805C112.963 33.8799 113.341 32.7682 113.742 31.5453C114.142 30.3224 114.52 29.0772 114.898 27.7654C115.276 26.4758 115.631 25.2084 115.987 23.9411C116.343 22.6737 116.654 21.4953 116.921 20.428H123.346V20.4058Z" fill="#001449"/>
<path d="M151.916 27.8543C151.916 30.3446 151.516 32.5236 150.76 34.3913C149.982 36.259 148.87 37.7932 147.447 39.0161C146.024 40.239 144.268 41.1506 142.222 41.7732C140.177 42.3735 137.865 42.6848 135.308 42.6848C134.152 42.6848 132.773 42.6403 131.217 42.5291C129.661 42.4402 128.127 42.2401 126.637 41.9288V13.8243C128.127 13.5575 129.705 13.3574 131.328 13.2684C132.951 13.1795 134.352 13.1128 135.508 13.1128C137.976 13.1128 140.221 13.3796 142.222 13.9355C144.246 14.4913 145.958 15.3585 147.403 16.5592C148.848 17.7598 149.96 19.2718 150.738 21.1395C151.516 23.0072 151.916 25.2529 151.916 27.8543ZM133.129 37.015C133.44 37.0372 133.796 37.0594 134.196 37.0817C134.596 37.1039 135.086 37.1039 135.641 37.1039C138.887 37.1039 141.289 36.2812 142.867 34.6359C144.446 32.9905 145.224 30.7448 145.224 27.8543C145.224 24.8304 144.468 22.5403 142.978 20.9838C141.489 19.4274 139.11 18.6492 135.864 18.6492C135.419 18.6492 134.952 18.6492 134.485 18.6714C134.018 18.6937 133.574 18.7159 133.151 18.7826V37.015H133.129Z" fill="#001449"/>
<path d="M164.367 19.8276C166.19 19.8276 167.724 20.0277 168.947 20.4502C170.17 20.8727 171.148 21.473 171.882 22.2512C172.615 23.0294 173.127 23.9633 173.438 25.075C173.749 26.1867 173.905 27.4319 173.905 28.7882V41.7065C173.016 41.9066 171.77 42.1289 170.192 42.3957C168.613 42.6625 166.701 42.7959 164.456 42.7959C163.033 42.7959 161.765 42.6625 160.609 42.418C159.453 42.1734 158.475 41.7509 157.63 41.1951C156.807 40.617 156.163 39.8832 155.718 38.9716C155.273 38.06 155.051 36.926 155.051 35.592C155.051 34.3246 155.318 33.2351 155.829 32.3457C156.341 31.4563 157.03 30.7448 157.897 30.2112C158.764 29.6776 159.742 29.2996 160.854 29.055C161.966 28.8104 163.122 28.6992 164.3 28.6992C165.1 28.6992 165.812 28.7437 166.434 28.8104C167.057 28.8771 167.568 28.9661 167.946 29.0772V28.4991C167.946 27.4541 167.635 26.587 166.99 25.9644C166.346 25.3196 165.234 25.0083 163.655 25.0083C162.61 25.0083 161.565 25.075 160.543 25.2306C159.52 25.3863 158.631 25.6086 157.875 25.8754L157.074 20.8727C157.43 20.7615 157.897 20.6503 158.43 20.5169C158.964 20.3835 159.564 20.2723 160.209 20.1834C160.854 20.0945 161.521 20.0055 162.232 19.9388C162.922 19.8499 163.633 19.8276 164.367 19.8276ZM164.856 37.9711C165.456 37.9711 166.056 37.9488 166.612 37.9266C167.168 37.9044 167.613 37.8599 167.946 37.7932V33.0794C167.702 33.035 167.324 32.9683 166.812 32.9238C166.323 32.8793 165.856 32.8349 165.434 32.8349C164.856 32.8349 164.3 32.8793 163.789 32.946C163.277 33.0127 162.833 33.1461 162.432 33.3463C162.032 33.5464 161.743 33.8132 161.521 34.1467C161.299 34.4802 161.187 34.9027 161.187 35.3918C161.187 36.3702 161.521 37.0372 162.166 37.4152C162.833 37.7932 163.722 37.9711 164.856 37.9711Z" fill="#001449"/>
<path d="M198.05 20.4058C196.805 24.6303 195.493 28.5881 194.115 32.279C192.759 35.97 191.269 39.5497 189.646 43.0183C189.068 44.2634 188.468 45.3307 187.89 46.1979C187.312 47.065 186.667 47.7987 185.978 48.3546C185.288 48.9327 184.488 49.3329 183.621 49.5998C182.754 49.8666 181.731 50 180.553 50C179.574 50 178.685 49.911 177.862 49.7332C177.04 49.5553 176.373 49.3552 175.839 49.1328L176.929 44.1745C177.573 44.3969 178.129 44.5525 178.641 44.6414C179.13 44.7304 179.663 44.7748 180.219 44.7748C181.331 44.7748 182.176 44.4858 182.776 43.8855C183.376 43.2851 183.888 42.4625 184.288 41.4174C182.865 38.6381 181.464 35.5253 180.041 32.0789C178.618 28.6326 177.284 24.7415 176.039 20.428H182.62C182.909 21.5175 183.221 22.6737 183.599 23.9411C183.977 25.2084 184.377 26.4758 184.799 27.7654C185.222 29.055 185.644 30.3224 186.066 31.5453C186.489 32.7682 186.911 33.8799 187.312 34.8805C187.667 33.8799 188.045 32.7682 188.445 31.5453C188.846 30.3224 189.224 29.0772 189.602 27.7654C189.98 26.4758 190.335 25.2084 190.691 23.9411C191.047 22.6737 191.358 21.4953 191.625 20.428H198.05V20.4058Z" fill="#001449"/>
</svg>
