<svg width="16" height="16" viewBox="0 0 16 16" fill="none" xmlns="http://www.w3.org/2000/svg">
<path d="M13.3333 4H10.6666V2.66667C10.6666 1.93334 10.0666 1.33334 9.33331 1.33334H6.66665C5.93331 1.33334 5.33331 1.93334 5.33331 2.66667V4H2.66665C1.93331 4 1.33331 4.6 1.33331 5.33334V13.3333C1.33331 14.0667 1.93331 14.6667 2.66665 14.6667H13.3333C14.0666 14.6667 14.6666 14.0667 14.6666 13.3333V5.33334C14.6666 4.6 14.0666 4 13.3333 4ZM6.66665 2.66667H9.33331V4H6.66665V2.66667ZM10.6666 10H8.66665V12H7.33331V10H5.33331V8.66667H7.33331V6.66667H8.66665V8.66667H10.6666V10Z" fill="#1A2038"/>
</svg>
