<svg width="22" height="22" viewBox="0 0 22 22" fill="none" xmlns="http://www.w3.org/2000/svg">
<path fill-rule="evenodd" clip-rule="evenodd" d="M10.9998 2.74999C6.44349 2.74999 2.74984 6.44364 2.74984 11C2.74984 15.5563 6.44349 19.25 10.9998 19.25C15.5562 19.25 19.2498 15.5563 19.2498 11C19.2498 6.44364 15.5562 2.74999 10.9998 2.74999ZM0.916504 11C0.916504 5.43112 5.43097 0.916656 10.9998 0.916656C16.5687 0.916656 21.0832 5.43112 21.0832 11C21.0832 16.5689 16.5687 21.0833 10.9998 21.0833C5.43097 21.0833 0.916504 16.5689 0.916504 11Z" fill="#1A2038"/>
<path fill-rule="evenodd" clip-rule="evenodd" d="M0.916504 11C0.916504 10.4937 1.32691 10.0833 1.83317 10.0833H20.1665C20.6728 10.0833 21.0832 10.4937 21.0832 11C21.0832 11.5063 20.6728 11.9167 20.1665 11.9167H1.83317C1.32691 11.9167 0.916504 11.5063 0.916504 11Z" fill="#1A2038"/>
<path fill-rule="evenodd" clip-rule="evenodd" d="M8.25005 11C8.31287 13.8186 9.28224 16.5322 10.9998 18.7451C12.7174 16.5322 13.6868 13.8186 13.7496 11C13.6868 8.18139 12.7174 5.46776 10.9998 3.25489C9.28224 5.46776 8.31287 8.18139 8.25005 11ZM10.9998 1.83332L10.323 1.2151C7.88032 3.88932 6.49214 7.35977 6.4167 10.9809C6.41644 10.9936 6.41644 11.0064 6.4167 11.0191C6.49214 14.6402 7.88032 18.1107 10.323 20.7849C10.4967 20.975 10.7423 21.0833 10.9998 21.0833C11.2573 21.0833 11.503 20.975 11.6767 20.7849C14.1194 18.1107 15.5075 14.6402 15.583 11.0191C15.5832 11.0064 15.5832 10.9936 15.583 10.9809C15.5075 7.35977 14.1194 3.88932 11.6767 1.2151L10.9998 1.83332Z" fill="#1A2038"/>
</svg>
