<svg width="22" height="22" viewBox="0 0 22 22" fill="none" xmlns="http://www.w3.org/2000/svg">
<path fill-rule="evenodd" clip-rule="evenodd" d="M15.3089 4.19585C14.7818 5.24999 14.4294 6.7704 14.4294 8.49987C14.4294 10.2293 14.7818 11.7498 15.3089 12.8039C15.8634 13.9128 16.4598 14.2497 16.846 14.2497C17.2322 14.2497 17.8286 13.9128 18.3831 12.8039C18.9102 11.7498 19.2626 10.2293 19.2626 8.49987C19.2626 6.7704 18.9102 5.24999 18.3831 4.19585C17.8286 3.08689 17.2322 2.74999 16.846 2.74999C16.4598 2.74999 15.8634 3.08689 15.3089 4.19585ZM3.79135 6.87326L13.4794 3.78441C12.917 5.08811 12.5961 6.73712 12.5961 8.49987C12.5961 10.2626 12.917 11.9116 13.4794 13.2153L3.79135 10.1265L3.77434 10.1212C3.45352 10.0258 3.17623 9.82102 2.99056 9.54252C2.80489 9.26401 2.72255 8.92931 2.75782 8.59645C2.76463 8.53224 2.76463 8.46749 2.75782 8.40328C2.72255 8.07042 2.80489 7.73572 2.99056 7.45722C3.17623 7.17871 3.45352 6.97397 3.77434 6.87851L3.79135 6.87326ZM3.24222 5.12408L15.9143 1.08382C16.2047 0.976316 16.5154 0.916656 16.846 0.916656C18.3007 0.916656 19.3709 2.07211 20.0229 3.37596C20.7022 4.73465 21.0959 6.5475 21.0959 8.49987C21.0959 10.4522 20.7022 12.2651 20.0229 13.6238C19.3709 14.9276 18.3007 16.0831 16.846 16.0831C16.5154 16.0831 16.2047 16.0234 15.9143 15.9159L10.9485 14.3326L11.7576 16.7778C12.0007 17.4055 11.9894 18.1038 11.7252 18.7237C11.4568 19.3534 10.9496 19.8509 10.3148 20.1069L10.3134 20.1074C9.67824 20.3624 8.9678 20.355 8.33811 20.0866C7.70842 19.8183 7.21096 19.311 6.95496 18.6762C6.95035 18.6648 6.94598 18.6533 6.94183 18.6417L4.69029 12.3373L3.24222 11.8757C2.51495 11.6569 1.88652 11.1915 1.46514 10.5595C1.05993 9.95166 0.870664 9.22641 0.925906 8.49987C0.870664 7.77333 1.05993 7.04807 1.46514 6.44027C1.88652 5.8082 2.51495 5.34283 3.24222 5.12408ZM8.78957 13.6443L6.8872 13.0378L8.66092 18.0042C8.73679 18.1821 8.87857 18.3241 9.05684 18.4C9.23949 18.4779 9.44554 18.4801 9.62984 18.4063C9.81381 18.3319 9.9608 18.1876 10.0386 18.005C10.1165 17.8222 10.1187 17.6159 10.0447 17.4315C10.0376 17.4138 10.031 17.396 10.0251 17.3779L8.78957 13.6443ZM17.3556 6.84146C17.7642 7.29736 17.9906 7.8877 17.9918 8.49988C17.9906 9.11206 17.7642 9.7024 17.3556 10.1583C16.9471 10.6142 16.385 10.9038 15.7766 10.9717C15.5836 10.162 15.4879 9.33223 15.4916 8.49988C15.4879 7.66753 15.5836 6.83771 15.7766 6.02804C16.385 6.09601 16.9471 6.38556 17.3556 6.84146Z" fill="#1A2038"/>
</svg>
