<svg width="22" height="22" viewBox="0 0 22 22" fill="none" xmlns="http://www.w3.org/2000/svg">
<path fill-rule="evenodd" clip-rule="evenodd" d="M10.0832 4.58333C7.55187 4.58333 5.49984 6.63536 5.49984 9.16667V10.0833V16.5H2.74984C1.73732 16.5 0.916504 15.6792 0.916504 14.6667V11C0.916504 9.98748 1.73732 9.16667 2.74984 9.16667L3.6665 9.16667C3.6665 5.62284 6.53934 2.75 10.0832 2.75H11.9165C15.4603 2.75 18.3332 5.62284 18.3332 9.16667L19.2498 9.16667C20.2624 9.16667 21.0832 9.98748 21.0832 11V14.6667C21.0832 15.6792 20.2624 16.5 19.2498 16.5H18.2177C17.8106 18.0815 16.375 19.25 14.6665 19.25H13.5046C13.1876 19.798 12.5951 20.1667 11.9165 20.1667C10.904 20.1667 10.0832 19.3459 10.0832 18.3333C10.0832 17.3208 10.904 16.5 11.9165 16.5C12.5951 16.5 13.1876 16.8687 13.5046 17.4167H14.6665C15.679 17.4167 16.4998 16.5959 16.4998 15.5833V10.0833V9.16667C16.4998 6.63536 14.4478 4.58333 11.9165 4.58333H10.0832ZM3.6665 11H2.74984V14.6667H3.6665V11ZM10.0832 11.2292C10.0832 11.862 9.57016 12.375 8.93734 12.375C8.30451 12.375 7.7915 11.862 7.7915 11.2292C7.7915 10.5963 8.30451 10.0833 8.93734 10.0833C9.57016 10.0833 10.0832 10.5963 10.0832 11.2292ZM13.0623 12.375C13.6952 12.375 14.2082 11.862 14.2082 11.2292C14.2082 10.5963 13.6952 10.0833 13.0623 10.0833C12.4295 10.0833 11.9165 10.5963 11.9165 11.2292C11.9165 11.862 12.4295 12.375 13.0623 12.375ZM18.3332 11H19.2498V14.6667H18.3332V11Z" fill="#1A2038"/>
</svg>
