<svg width="22" height="22" viewBox="0 0 22 22" fill="none" xmlns="http://www.w3.org/2000/svg">
<path fill-rule="evenodd" clip-rule="evenodd" d="M10.9998 2.74999C6.44349 2.74999 2.74984 6.44364 2.74984 11C2.74984 15.5563 6.44349 19.25 10.9998 19.25C15.5562 19.25 19.2498 15.5563 19.2498 11C19.2498 6.44364 15.5562 2.74999 10.9998 2.74999ZM0.916504 11C0.916504 5.43112 5.43097 0.916656 10.9998 0.916656C16.5687 0.916656 21.0832 5.43112 21.0832 11C21.0832 16.5689 16.5687 21.0833 10.9998 21.0833C5.43097 21.0833 0.916504 16.5689 0.916504 11Z" fill="#1A2038"/>
<path fill-rule="evenodd" clip-rule="evenodd" d="M10.9998 4.58332C11.5061 4.58332 11.9165 4.99373 11.9165 5.49999V10.4335L15.0765 12.0134C15.5293 12.2398 15.7128 12.7905 15.4864 13.2433C15.26 13.6961 14.7094 13.8796 14.2566 13.6532L10.5899 11.8199C10.2793 11.6646 10.0832 11.3472 10.0832 11V5.49999C10.0832 4.99373 10.4936 4.58332 10.9998 4.58332Z" fill="#1A2038"/>
</svg>
