<svg width="22" height="22" viewBox="0 0 22 22" fill="none" xmlns="http://www.w3.org/2000/svg">
<path fill-rule="evenodd" clip-rule="evenodd" d="M11.0002 0C11.5064 0 11.9168 0.410406 11.9168 0.916667V21.0833C11.9168 21.5896 11.5064 22 11.0002 22C10.4939 22 10.0835 21.5896 10.0835 21.0833V0.916667C10.0835 0.410406 10.4939 0 11.0002 0Z" fill="#1A2038"/>
<path fill-rule="evenodd" clip-rule="evenodd" d="M5.79168 4.87485C6.56527 4.10126 7.61448 3.66667 8.7085 3.66667H15.5835C16.0898 3.66667 16.5002 4.07707 16.5002 4.58333C16.5002 5.08959 16.0898 5.5 15.5835 5.5H8.7085C8.10071 5.5 7.51781 5.74144 7.08804 6.17121C6.65827 6.60098 6.41683 7.18388 6.41683 7.79167C6.41683 8.39945 6.65827 8.98235 7.08804 9.41212C7.51781 9.84189 8.10071 10.0833 8.7085 10.0833H13.2918C14.3858 10.0833 15.4351 10.5179 16.2086 11.2915C16.9822 12.0651 17.4168 13.1143 17.4168 14.2083C17.4168 15.3024 16.9822 16.3516 16.2086 17.1251C15.4351 17.8987 14.3858 18.3333 13.2918 18.3333H5.50016C4.9939 18.3333 4.5835 17.9229 4.5835 17.4167C4.5835 16.9104 4.9939 16.5 5.50016 16.5H13.2918C13.8996 16.5 14.4825 16.2586 14.9123 15.8288C15.3421 15.399 15.5835 14.8161 15.5835 14.2083C15.5835 13.6005 15.3421 13.0177 14.9123 12.5879C14.4825 12.1581 13.8996 11.9167 13.2918 11.9167H8.7085C7.61448 11.9167 6.56527 11.4821 5.79168 10.7085C5.01809 9.93489 4.5835 8.88568 4.5835 7.79167C4.5835 6.69765 5.01809 5.64844 5.79168 4.87485Z" fill="#1A2038"/>
</svg>
