<svg width="138" height="141" viewBox="0 0 138 141" fill="none" xmlns="http://www.w3.org/2000/svg">
    <defs>
        <linearGradient id="paint0_linear_1883_3941" x1="70.6882" y1="31.5195" x2="70.6882" y2="140.711"
            gradientUnits="userSpaceOnUse">
            <stop stop-color="#4B83ED" />
            <stop offset="1" stop-color="#2A65D4" />
        </linearGradient>
        <linearGradient id="paint1_linear_1883_3941" x1="124.108" y1="5.75946" x2="27.2048" y2="141.51"
            gradientUnits="userSpaceOnUse">
            <stop stop-color="#E8F0FF" />
            <stop offset="1" stop-color="#A6C4FC" />
        </linearGradient>
        <linearGradient id="paint2_linear_1883_3941" x1="55.0091" y1="79.0748" x2="36.129" y2="57.4974"
            gradientUnits="userSpaceOnUse">
            <stop stop-color="#3E78E7" stop-opacity="0" />
            <stop offset="0.179" stop-color="#3E78E7" stop-opacity="0.2" />
            <stop offset="1" stop-color="#3E78E7" />
        </linearGradient>
        <linearGradient id="paint3_linear_1883_3941" x1="5.96142" y1="104.126" x2="137.666" y2="104.126"
            gradientUnits="userSpaceOnUse">
            <stop stop-color="#144DDE" />
            <stop offset="0.229167" stop-color="#658CF1" />
            <stop offset="0.604167" stop-color="#7397F2" />
            <stop offset="0.927" stop-color="#85A5F4" />
        </linearGradient>
    </defs>
    <path
        d="M124.328 31.5195H17.048C15.6007 31.5204 14.2129 32.095 13.1895 33.1169C12.1661 34.1389 11.5907 35.5247 11.5898 36.97V135.26C11.5907 136.706 12.1661 138.091 13.1895 139.113C14.2129 140.135 15.6007 140.71 17.048 140.711H124.328C125.775 140.71 127.163 140.136 128.187 139.114C129.21 138.092 129.786 136.706 129.787 135.26V36.97C129.786 35.5246 129.21 34.1387 128.187 33.1167C127.163 32.0947 125.775 31.5203 124.328 31.5195Z"
        fill="url(#paint0_linear_1883_3941)" />
    <path
        d="M24 6.16552C24 2.78787 26.7868 0.0758463 30.1632 0.167738L114.472 2.46227C117.708 2.55036 120.291 5.19052 120.308 8.42827L120.968 132.968C120.986 136.294 118.294 139 114.968 139H30C26.6863 139 24 136.314 24 133L24 6.16552Z"
        fill="#DAF0FF" />
    <path
        d="M23 8C23 4.68629 25.6863 2 29 2H115C118.314 2 121 4.68629 121 8V135C121 138.314 118.314 141 115 141H29C25.6863 141 23 138.314 23 135V8Z"
        fill="url(#paint1_linear_1883_3941)" />
    <path
        d="M60.6956 27.78C60.1756 28.46 59.6222 29.2 59.0356 30C58.4489 30.8 57.9556 31.62 57.5556 32.46H60.6956V27.78ZM63.6156 24.14V32.46H65.0956V34.9H63.6156V38H60.6956V34.9H54.7156V32.72C55.0089 32.1333 55.3756 31.4733 55.8156 30.74C56.2556 29.9933 56.7422 29.2333 57.2756 28.46C57.8222 27.6733 58.3956 26.9067 58.9956 26.16C59.5956 25.4133 60.1956 24.74 60.7956 24.14H63.6156ZM76.6628 31.04C76.6628 33.3733 76.2161 35.1667 75.3228 36.42C74.4428 37.66 73.2228 38.28 71.6628 38.28C70.1028 38.28 68.8761 37.66 67.9827 36.42C67.1027 35.1667 66.6627 33.3733 66.6627 31.04C66.6627 29.88 66.7761 28.8533 67.0027 27.96C67.2428 27.0667 67.5828 26.3133 68.0228 25.7C68.4628 25.0867 68.9894 24.62 69.6028 24.3C70.2161 23.98 70.9028 23.82 71.6628 23.82C73.2228 23.82 74.4428 24.4467 75.3228 25.7C76.2161 26.94 76.6628 28.72 76.6628 31.04ZM73.6228 31.04C73.6228 30.3467 73.5894 29.72 73.5228 29.16C73.4561 28.5867 73.3494 28.0933 73.2028 27.68C73.0561 27.2667 72.8561 26.9467 72.6028 26.72C72.3494 26.4933 72.0361 26.38 71.6628 26.38C71.2894 26.38 70.9761 26.4933 70.7228 26.72C70.4828 26.9467 70.2828 27.2667 70.1228 27.68C69.9761 28.0933 69.8694 28.5867 69.8028 29.16C69.7361 29.72 69.7028 30.3467 69.7028 31.04C69.7028 31.7333 69.7361 32.3667 69.8028 32.94C69.8694 33.5133 69.9761 34.0067 70.1228 34.42C70.2828 34.8333 70.4828 35.1533 70.7228 35.38C70.9761 35.6067 71.2894 35.72 71.6628 35.72C72.0361 35.72 72.3494 35.6067 72.6028 35.38C72.8561 35.1533 73.0561 34.8333 73.2028 34.42C73.3494 34.0067 73.4561 33.5133 73.5228 32.94C73.5894 32.3667 73.6228 31.7333 73.6228 31.04ZM84.0299 27.78C83.5099 28.46 82.9566 29.2 82.3699 30C81.7833 30.8 81.2899 31.62 80.8899 32.46H84.0299V27.78ZM86.9499 24.14V32.46H88.4299V34.9H86.9499V38H84.0299V34.9H78.0499V32.72C78.3433 32.1333 78.7099 31.4733 79.1499 30.74C79.5899 29.9933 80.0766 29.2333 80.6099 28.46C81.1566 27.6733 81.7299 26.9067 82.3299 26.16C82.9299 25.4133 83.5299 24.74 84.1299 24.14H86.9499Z"
        fill="#F5F9FF" />
    <path d="M43.1094 60.7866L61.1203 76.5462H43.1094V60.7866Z" fill="url(#paint2_linear_1883_3941)" />
    <path d="M129.786 78.7982V38.5251L121.344 31.5195V78.7977L129.786 78.7982Z" fill="#144DDE" />
    <path
        d="M137.611 82.4313L130.012 136.039C129.632 138.719 127.331 140.711 124.615 140.711H16.0536C13.3379 140.711 11.0365 138.719 10.6566 136.039L0.387549 63.6021C-0.0756677 60.3319 2.47062 57.4102 5.78462 57.4102H39.3107C42.0264 57.4102 44.3279 59.402 44.7078 62.0814L46.0535 71.5676C46.4335 74.2476 48.7349 76.2394 51.4506 76.2394H132.215C135.528 76.2394 138.075 79.1612 137.612 82.4313H137.611Z"
        fill="url(#paint3_linear_1883_3941)" />
    <path
        d="M111.153 117.071H29.0976C28.6478 117.071 28.2135 116.914 27.8761 116.631C27.5387 116.348 27.3213 115.957 27.2646 115.533L26.238 107.793C26.2054 107.545 26.2284 107.294 26.3056 107.056C26.3828 106.817 26.5124 106.597 26.6857 106.41C26.859 106.223 27.0722 106.073 27.311 105.97C27.5498 105.867 27.8089 105.814 28.0709 105.814H112.18C112.442 105.814 112.701 105.867 112.94 105.97C113.178 106.073 113.392 106.223 113.565 106.41C113.738 106.597 113.868 106.817 113.945 107.056C114.022 107.294 114.045 107.545 114.013 107.793L112.986 115.533C112.929 115.957 112.712 116.348 112.374 116.631C112.037 116.914 111.603 117.071 111.153 117.071Z"
        fill="#C8DAFF" />

</svg>