<svg width="20" height="20" viewBox="0 0 20 20" fill="none" xmlns="http://www.w3.org/2000/svg">
<path fill-rule="evenodd" clip-rule="evenodd" d="M13.1502 1.98982C12.4867 1.98982 11.8504 2.2534 11.3812 2.72259L3.72283 10.3809C2.94091 11.1628 2.50163 12.2234 2.50163 13.3292C2.50163 14.435 2.94091 15.4955 3.72283 16.2774C4.50475 17.0593 5.56527 17.4986 6.67107 17.4986C7.77688 17.4986 8.8374 17.0593 9.61932 16.2774L17.2777 8.61908C17.6031 8.29364 18.1307 8.29364 18.4562 8.61908C18.7816 8.94452 18.7816 9.47216 18.4562 9.79759L10.7978 17.4559C9.70335 18.5504 8.21891 19.1653 6.67107 19.1653C5.12324 19.1653 3.6388 18.5504 2.54432 17.4559C1.44984 16.3614 0.834961 14.877 0.834961 13.3292C0.834961 11.7813 1.44984 10.2969 2.54432 9.20242L10.2027 1.54408C10.9844 0.762333 12.0447 0.323151 13.1502 0.323151C14.2558 0.323151 15.3161 0.762332 16.0978 1.54408C16.8796 2.32583 17.3188 3.38611 17.3188 4.49167C17.3188 5.59723 16.8796 6.65751 16.0978 7.43926L8.43116 15.0976C7.96215 15.5666 7.32603 15.8301 6.66274 15.8301C5.99945 15.8301 5.36333 15.5666 4.89432 15.0976C4.4253 14.6286 4.16181 13.9925 4.16181 13.3292C4.16181 12.6659 4.4253 12.0298 4.89432 11.5607L11.9697 4.49373C12.2953 4.16849 12.8229 4.1688 13.1482 4.49443C13.4734 4.82006 13.4731 5.34769 13.1475 5.67294L6.07283 12.7393C5.91659 12.8957 5.82848 13.1081 5.82848 13.3292C5.82848 13.5504 5.91638 13.7626 6.07283 13.9191C6.22929 14.0755 6.44148 14.1634 6.66274 14.1634C6.884 14.1634 7.0962 14.0755 7.25265 13.9191L14.9193 6.26075C15.3883 5.79159 15.6521 5.15505 15.6521 4.49167C15.6521 3.82814 15.3885 3.19178 14.9193 2.72259C14.4501 2.2534 13.8138 1.98982 13.1502 1.98982Z" fill="#1A2038"/>
</svg>
