<svg width="60" height="60" viewBox="0 0 60 60" fill="none" xmlns="http://www.w3.org/2000/svg">
<path d="M30 40.5C34.4183 40.5 38 36.9183 38 32.5C38 28.0817 34.4183 24.5 30 24.5C25.5817 24.5 22 28.0817 22 32.5C22 36.9183 25.5817 40.5 30 40.5Z" fill="#888FB2"/>
<path d="M22.5 7.5L17.925 12.5H10C7.25 12.5 5 14.75 5 17.5V47.5C5 50.25 7.25 52.5 10 52.5H50C52.75 52.5 55 50.25 55 47.5V17.5C55 14.75 52.75 12.5 50 12.5H42.075L37.5 7.5H22.5ZM30 45C23.1 45 17.5 39.4 17.5 32.5C17.5 25.6 23.1 20 30 20C36.9 20 42.5 25.6 42.5 32.5C42.5 39.4 36.9 45 30 45Z" fill="#888FB2"/>
</svg>
