<svg width="357" height="200" viewBox="0 0 357 200" fill="none"
    xmlns="http://www.w3.org/2000/svg">
    <defs>
        <linearGradient id="paint0_linear_1939_53782" x1="147.108" y1="102.828" x2="144.099" y2="93.8631" gradientUnits="userSpaceOnUse">
            <stop stop-color="#DDDEE6"/>
            <stop offset="0.3948" stop-color="#E2E3EB"/>
            <stop offset="0.848" stop-color="#EFF0F9"/>
            <stop offset="1" stop-color="#F5F6FF"/>
        </linearGradient>
        <linearGradient id="paint1_linear_1939_53782" x1="17.8652" y1="69.7199" x2="51.3053" y2="83.4613" gradientUnits="userSpaceOnUse">
            <stop stop-color="#CDCED9"/>
            <stop offset="1" stop-color="#B5B6BF"/>
        </linearGradient>
        <linearGradient id="paint2_linear_1939_53782" x1="94.4696" y1="115.26" x2="84.4019" y2="95.3799" gradientUnits="userSpaceOnUse">
            <stop stop-color="#D5D6DE"/>
            <stop offset="1" stop-color="#E9EAF2"/>
        </linearGradient>
        <linearGradient id="paint3_linear_1939_53782" x1="66.0833" y1="98.7414" x2="39.3636" y2="94.5544" gradientUnits="userSpaceOnUse">
            <stop stop-color="#CDCED9"/>
            <stop offset="1" stop-color="#B5B6BF"/>
        </linearGradient>
        <linearGradient id="paint4_linear_1939_53782" x1="63.9372" y1="101.259" x2="76.0366" y2="110.457" gradientUnits="userSpaceOnUse">
            <stop stop-color="#CDCED9"/>
            <stop offset="1" stop-color="#B5B6BF"/>
        </linearGradient>
        <linearGradient id="paint5_linear_1939_53782" x1="209.377" y1="99.6295" x2="205.409" y2="87.8056" gradientUnits="userSpaceOnUse">
            <stop stop-color="#DDDEE6"/>
            <stop offset="1" stop-color="#E9EAF2"/>
        </linearGradient>
        <linearGradient id="paint6_linear_1939_53782" x1="321.488" y1="56.7263" x2="313.441" y2="68.9262" gradientUnits="userSpaceOnUse">
            <stop stop-color="#4A5B75"/>
            <stop offset="0.1823" stop-color="#4C5D78"/>
            <stop offset="0.2992" stop-color="#526480"/>
            <stop offset="0.3977" stop-color="#5D718F"/>
            <stop offset="0.4855" stop-color="#6C82A4"/>
            <stop offset="0.5095" stop-color="#7188AB"/>
            <stop offset="0.5273" stop-color="#6D83A5"/>
            <stop offset="0.606" stop-color="#5E7292"/>
            <stop offset="0.6962" stop-color="#536684"/>
            <stop offset="0.8072" stop-color="#4D5F7B"/>
            <stop offset="1" stop-color="#4B5D79"/>
        </linearGradient>
        <linearGradient id="paint7_linear_1939_53782" x1="245.46" y1="144.812" x2="268.233" y2="166.97" gradientUnits="userSpaceOnUse">
            <stop stop-color="#CACBD6"/>
            <stop offset="1" stop-color="#E7E8F5"/>
        </linearGradient>
        <linearGradient id="paint8_linear_1939_53782" x1="136.62" y1="134.739" x2="144.485" y2="134.705" gradientUnits="userSpaceOnUse">
            <stop stop-color="#B5B6BF"/>
            <stop offset="1" stop-color="#85868C"/>
        </linearGradient>
        <linearGradient id="paint9_linear_1939_53782" x1="170.944" y1="133.922" x2="165.327" y2="119.794" gradientUnits="userSpaceOnUse">
            <stop stop-color="#DDDEE6"/>
            <stop offset="0.3948" stop-color="#E2E3EB"/>
            <stop offset="0.848" stop-color="#EFF0F9"/>
            <stop offset="1" stop-color="#F5F6FF"/>
        </linearGradient>
        <linearGradient id="paint10_linear_1939_53782" x1="234.746" y1="74.2993" x2="233.996" y2="70.0291" gradientUnits="userSpaceOnUse">
            <stop stop-color="#DDDEE6"/>
            <stop offset="1" stop-color="#E9EAF2"/>
        </linearGradient>
    </defs>
    <path d="M189.102 87.0936C189.102 87.0936 126.344 59.5697 122.274 57.5098C118.204 55.4499 114.674 52.9403 112.818 52.9487C110.962 52.9571 107.667 53.1817 107.784 53.9489C107.9 54.7162 108.677 57.6818 113.411 63.1396C118.145 68.5975 150.595 100.581 150.595 100.581C150.595 100.581 174.867 98.2952 189.102 87.0936Z" fill="#D5D6E0"/>
    <path opacity="0.75" d="M151.153 91.7084C151.109 91.7651 151.041 91.7847 150.978 91.7729C150.946 91.767 150.915 91.7611 150.889 91.7239L134.647 77.5602L130.307 80.4084C130.224 80.3281 130.116 80.2106 130.034 80.1303L134.368 77.3134L118.658 63.6061L115.254 65.1066C115.145 64.9891 115.063 64.9088 114.986 64.7972L115.029 64.7405L118.608 63.1755C118.677 63.156 118.771 63.1737 118.828 63.2168L151.2 91.4579C151.225 91.4951 151.233 91.6263 151.153 91.7084Z" fill="#C2C3C9"/>
    <path d="M170.61 92.8949C170.432 92.6345 169.878 88.9978 166.667 85.9972C165.671 85.0649 162.533 85.8376 162.533 85.8376C162.533 85.8376 147.953 90.0384 140.98 92.8789C128.972 97.7569 121.417 103.697 120.744 104.511C120.744 104.511 124.803 108.189 125.878 108.358C126.952 108.527 135.086 106.261 142.675 103.957C150.232 101.648 166.686 95.4323 167.866 94.5192C169.009 93.6316 170.61 92.8949 170.61 92.8949Z" fill="url(#paint0_linear_1939_53782)"/>
    <path d="M57.6897 76.3157L25.8943 72.2312C25.4485 72.18 24.991 72.1914 24.5414 72.334L12.7554 76.3784C12.3372 76.5268 12.3316 77.0767 12.7225 77.2473L33.6414 85.9033L57.6897 76.3157Z" fill="url(#paint1_linear_1939_53782)"/>
    <path opacity="0.75" d="M38.6133 81.9419C38.5643 82.03 38.4838 82.1121 38.3895 82.0944L38.3581 82.0885L15.4296 75.6484C15.4296 75.6484 15.3039 75.6249 15.1468 75.5954L15.8399 75.3689L38.4914 81.7246C38.5602 81.7051 38.6368 81.8167 38.6133 81.9419Z" fill="#C2C3C9"/>
    <path d="M138.308 103.656C138.308 103.656 135.771 101.916 133.464 101.905C131.157 101.893 121.159 104.555 117.881 104.686C114.573 104.811 61.7896 75.2686 60.0178 74.4825C55.5727 72.5143 39.2845 80.9647 31.56 85.9006C30.1172 86.8292 30.2802 90.2953 36.0953 91.0296C40.0958 91.5531 40.1803 88.3279 41.4719 90.8066C49.6128 106.367 67.2399 134.306 67.2399 134.306C67.2399 134.306 136.57 108.062 138.308 103.656Z" fill="#D5D6E0"/>
    <path d="M138.308 103.656C138.186 103.958 137.709 104.419 136.932 104.922C135.245 104.378 133.232 103.838 132.179 103.9C130.074 104.024 119.66 106.997 116.791 106.686C113.922 106.374 64.0263 78.6055 60.9492 78.7089C57.8662 78.8436 34.8301 86.6765 33.5371 88.5406C33.18 89.057 32.9742 89.6342 32.9057 90.1724C30.2559 88.865 30.4156 86.6263 31.5542 85.9323C39.2786 80.9964 55.5669 72.546 60.012 74.5142C61.7838 75.3003 114.598 104.848 117.876 104.718C121.184 104.593 131.151 101.925 133.458 101.936C135.772 101.917 138.308 103.656 138.308 103.656Z" fill="url(#paint2_linear_1939_53782)"/>
    <path d="M85.0878 97.0764C85.0878 97.0764 62.321 101.913 51.9626 109.272C51.4692 108.434 50.9758 107.596 50.4824 106.758C56.2208 103.913 69.459 98.196 85.0878 97.0764Z" fill="#144DDE"/>
    <path d="M97.126 94.635C87.7827 95.0215 63.0838 96.8057 49.6823 105.474C47.7657 102.165 45.8688 98.9243 44.194 95.8876C52.0888 93.5116 69.8778 89.1996 90.182 90.9016C92.5431 92.1872 94.8787 93.4356 97.126 94.635Z" fill="#144DDE"/>
    <path d="M80.2492 126.861L48.3528 87.5924L40.0574 90.0229" stroke="#C2C3C9" stroke-width="0.8378" stroke-miterlimit="10" stroke-linecap="round" stroke-linejoin="round"/>
    <path d="M62.8307 79.2562C63.5867 85.9774 64.5339 110.755 64.5392 113.154C64.5281 114.254 64.632 114.047 63.625 114.733C62.5925 115.382 56.2996 117.021 56.2996 117.021C54.5085 116.685 37.9618 89.403 36.9281 87.9774C36.7492 87.717 36.5369 87.2883 36.9845 86.9833C39.3949 85.2315 51.9048 79.9292 59.5841 78.3555C61.5162 77.9401 62.7241 78.2639 62.8307 79.2562Z" fill="url(#paint3_linear_1939_53782)"/>
    <path opacity="0.75" d="M59.2837 115.507C59.2464 115.532 59.1835 115.521 59.1521 115.515C59.0892 115.503 59.0323 115.46 59.0126 115.391L46.7889 89.3414L39.9157 92.6868C39.8391 92.5752 39.7624 92.4636 39.7172 92.3579L46.8082 88.8913C46.8455 88.8659 46.9084 88.8777 46.9712 88.8895C47.0341 88.9012 47.0596 88.9384 47.0852 88.9756L59.4052 115.206C59.4446 115.343 59.3897 115.462 59.2837 115.507Z" fill="#C2C3C9"/>
    <path d="M63.5933 114.727C62.5922 115.382 56.2994 117.021 56.2994 117.021C56.048 116.974 55.4821 116.349 54.692 115.358C54.7746 115.438 55.6195 116.31 56.7073 116.06C57.8579 115.822 63.2905 114.086 63.6259 113.339C63.9613 112.592 61.9183 80.997 61.6781 79.85C61.4654 78.9026 60.6187 78.3872 60.3536 78.2403C61.8184 78.0613 62.7259 78.426 62.8304 79.2559C63.5864 85.9771 64.5336 110.754 64.5331 113.185C64.5278 114.254 64.6259 114.078 63.5933 114.727Z" fill="url(#paint4_linear_1939_53782)"/>
    <path d="M210.496 78.8235C255.919 64.8835 283.357 56.1262 292.297 54.5946C307.862 51.9072 319.392 57.376 323.682 58.4399C327.965 59.5352 352.914 58.6729 354.91 63.8117C356.907 68.9506 350.545 70.6094 344.616 73.2568C338.687 75.9043 294.81 91.1391 289.091 93.0156C283.372 94.8922 258.063 108.424 244.466 114.495C230.868 120.566 217.832 129.367 188.94 134.254C160.08 139.147 152.055 139.618 117.446 139.608C83.3884 139.605 69.9099 140.706 67.838 140.48C65.7661 140.253 64.6125 138.773 64.5291 137.137C64.4457 135.5 65.1008 134.262 66.6514 132.932C68.2276 131.64 136.637 101.463 210.496 78.8235Z" fill="#D5D6E0"/>
    <path d="M355.289 65.9569C355.289 65.9569 350.435 63.3935 338.35 63.6546C327.738 63.8679 324.844 64.038 319.25 64.3823C313.655 64.7265 322.037 63.2198 308.543 64.5779C303.014 65.0963 268.481 74.046 224.035 87.975C165.526 106.299 95.6988 128.431 71.9386 140.471C69.7137 140.54 68.4039 140.586 67.8638 140.517C65.792 140.29 64.6384 138.81 64.555 137.174C64.4715 135.538 65.1267 134.299 66.6773 132.97C68.2279 131.64 136.637 101.463 210.496 78.8235C255.919 64.8834 283.357 56.1262 292.297 54.5945C307.862 51.9072 319.399 57.3447 323.682 58.4399C327.966 59.5351 352.915 58.6729 354.911 63.8117C355.216 64.6143 355.344 65.319 355.289 65.9569Z" fill="url(#paint5_linear_1939_53782)"/>
    <path d="M66.6825 132.938C101.657 116.779 138.307 103.657 138.307 103.657C146.431 100.578 170.352 91.8418 170.352 91.8418" stroke="#C2C3C9" stroke-width="0.8378" stroke-miterlimit="10" stroke-linecap="round" stroke-linejoin="round"/>
    <path d="M213.585 109.35C213.585 109.35 144.367 113.836 79.5495 137.005C79.5495 137.005 151.617 106.575 213.585 109.35Z" fill="#144DDE"/>
    <path d="M355.289 65.9571C354.983 69.4972 349.654 71.0257 344.648 73.2628C338.719 75.9103 294.842 91.1451 289.154 93.0275C283.435 94.904 258.126 108.436 244.529 114.507C230.931 120.577 217.895 129.379 189.003 134.266C160.137 139.19 152.118 139.63 117.509 139.62C96.8245 139.597 83.7325 140.026 76.1683 140.292C85.3934 136.027 117.318 126.588 138.676 123.367C172.931 118.157 207.346 113.301 231.39 106.338C255.434 99.3749 336.406 73.4994 344.293 71.511C349.518 70.1899 353.328 67.5663 355.289 65.9571Z" fill="#144DDE"/>
    <path d="M322.663 58.1513C320.212 57.1729 317.531 56.3783 313.55 55.4047C313.927 55.994 314.175 56.7536 314.054 57.5735C313.594 60.3718 309.086 62.3784 308.28 63.556C307.799 64.2112 308.171 67.7812 309.175 68.8447C310.179 69.9081 311.076 69.9792 312.812 69.9159C314.554 69.8213 325.492 67.1736 326.448 61.9078C326.683 60.6555 325.48 59.2631 322.663 58.1513Z" fill="#1A2038"/>
    <path d="M325.379 59.6326C325.481 60.3 325.497 61.0809 325.398 61.6131L325.392 61.6445C325.086 63.2725 323.524 64.6648 321.557 65.7867L313.646 60.4459C314.382 59.644 314.947 58.7129 315.109 57.6738C315.162 57.392 315.146 57.1297 315.13 56.8675L314.864 55.6832C314.43 55.5694 313.965 55.4497 313.531 55.3358C313.908 55.9252 314.156 56.6847 314.035 57.5047C313.575 60.303 309.067 62.3095 308.261 63.4871C307.78 64.1424 308.152 67.7124 309.156 68.7758C309.969 69.6415 310.743 69.8514 311.947 69.8504C312.21 69.8349 312.467 69.8508 312.768 69.8099C314.509 69.7153 325.448 67.0676 326.403 61.8018C326.583 61.1874 326.343 60.559 325.379 59.6326ZM312.761 68.8039C312.435 68.8076 312.203 68.829 311.978 68.819C310.937 68.8182 310.509 68.6731 309.968 68.0856C309.371 67.4549 309.024 64.797 309.222 64.0887C309.432 63.8363 310.103 63.3789 310.631 62.9918C311.345 62.4776 312.172 61.8872 312.916 61.2164L320.505 66.3672C317.421 67.8954 313.845 68.748 312.761 68.8039Z" fill="url(#paint6_linear_1939_53782)"/>
    <path d="M243.785 114.141C249.213 125.952 271.406 174.291 272.653 177.182C274.086 180.465 272.673 181.237 270.82 182.445C268.967 183.653 261.163 186.759 257.775 186.092C254.507 185.479 198.71 142.698 188.02 134.308C187.539 133.926 187.309 133.073 188.141 132.451C192.589 129.202 208.964 118.207 237.851 112.477C241.397 111.781 243.049 112.512 243.785 114.141Z" fill="#D5D6E0"/>
    <path opacity="0.75" d="M255.074 177.773C255.062 177.836 255.05 177.899 254.981 177.918L250.316 181.289C250.202 181.203 250.088 181.116 249.968 181.062C249.974 181.03 249.974 181.03 250.011 181.005L254.522 177.767L239.494 165.971L234.583 169.781C234.469 169.695 234.355 169.609 234.241 169.523L234.279 169.497L239.152 165.712L221.08 151.594L214.998 155.055C214.884 154.969 214.77 154.883 214.656 154.797C214.662 154.765 214.693 154.771 214.731 154.746L220.738 151.335L205.192 139.182C204.45 139.497 202.227 140.765 198.918 142.802L198.607 142.549C198.613 142.518 198.645 142.524 198.65 142.493C201.151 140.952 204.306 139.048 205.174 138.757C205.242 138.738 205.305 138.75 205.362 138.793L255.003 177.631C255.06 177.674 255.085 177.711 255.074 177.773Z" fill="#C2C3C9"/>
    <path d="M270.82 182.445C268.967 183.653 261.162 186.759 257.775 186.091C257.775 186.091 256.686 184.785 258.194 184.549C259.733 184.319 271.055 181.192 270.829 178.233C270.611 175.405 244.961 120.875 240.794 112.218C240.989 112.222 241.272 112.275 241.366 112.293C242.623 112.528 243.352 113.151 243.784 114.14C249.213 125.951 271.375 174.284 272.659 177.15C274.118 180.47 272.673 181.236 270.82 182.445Z" fill="url(#paint7_linear_1939_53782)"/>
    <path d="M106.357 136.815C106.357 136.815 105.655 149.745 106.18 150.07C106.736 150.401 112.882 150.063 113.422 149.614C113.962 149.164 132.162 136.762 132.162 136.762L106.357 136.815Z" fill="#D5D6E0"/>
    <path d="M141.368 139.882C141.368 139.882 139.822 139.106 139.05 135.59C138.278 132.075 136.612 129.688 136.612 129.688C136.612 129.688 141.768 128.905 143.928 132.13C146.057 135.349 141.368 139.882 141.368 139.882Z" fill="url(#paint8_linear_1939_53782)"/>
    <path d="M170.257 110.557C153.206 117.179 141.279 125.961 136.612 129.688C136.612 129.688 142.498 131.084 143.243 135.437C143.769 138.355 141.368 139.882 141.368 139.882C141.368 139.882 164.1 136.271 176.848 132.471C189.603 128.641 194.929 122.964 195.68 121.905C196.4 120.841 196.569 116.822 195.147 112.957C193.725 109.093 191.818 106.078 189.195 105.845C186.545 105.575 179.204 107.082 170.257 110.557Z" fill="url(#paint9_linear_1939_53782)"/>
    <path d="M238.224 72.1625L236.162 71.7108L231.911 68.7094L230.008 69.4869C230.008 69.4869 233.15 72.5071 233.468 72.8909C233.793 73.2434 233.75 73.8188 233.75 73.8188L238.224 72.1625Z" fill="url(#paint10_linear_1939_53782)"/>
    <path d="M271.942 79.5243C270.746 79.6564 270.299 80.4801 270.185 80.9125C269.962 81.5836 269.947 82.8772 270.315 84.7289C270.65 86.4122 271.876 87.1607 273.307 86.8134C274.738 86.4661 275.122 85.1121 274.885 82.7341C274.755 81.3484 274.401 80.6338 274.146 80.2617C273.694 79.7232 273.069 79.4116 271.942 79.5243Z" fill="#1A2038"/>
    <path d="M262.219 82.6268C261.023 82.759 260.576 83.5826 260.462 84.015C260.239 84.6861 260.224 85.9798 260.592 87.8314C260.927 89.5148 262.153 90.2633 263.584 89.916C265.016 89.5687 265.4 88.2147 265.163 85.8366C265.032 84.4509 264.679 83.7363 264.423 83.3643C264.002 82.8316 263.346 82.5141 262.219 82.6268Z" fill="#1A2038"/>
    <path d="M252.34 85.7005C251.144 85.8327 250.697 86.6563 250.583 87.0888C250.36 87.7599 250.345 89.0535 250.713 90.9052C251.048 92.5885 252.274 93.337 253.705 92.9897C255.136 92.6424 255.52 91.2884 255.283 88.9104C255.153 87.5247 254.799 86.81 254.544 86.438C254.123 85.9054 253.467 85.5878 252.34 85.7005Z" fill="#1A2038"/>
    <path d="M242.422 88.798C241.226 88.9302 240.779 89.7538 240.665 90.1862C240.442 90.8573 240.427 92.151 240.795 94.0026C241.13 95.686 242.356 96.4345 243.787 96.0872C245.219 95.7399 245.603 94.3859 245.366 92.0078C245.235 90.6221 244.881 89.9075 244.626 89.5355C244.2 89.0342 243.549 88.6853 242.422 88.798Z" fill="#1A2038"/>
    <path d="M232.368 91.9371C231.172 92.0693 230.725 92.8929 230.611 93.3253C230.388 93.9964 230.373 95.2901 230.741 97.1417C231.076 98.8251 232.302 99.5736 233.733 99.2263C235.164 98.879 235.549 97.525 235.312 95.1469C235.181 93.7612 234.827 93.0466 234.572 92.6746C234.151 92.1419 233.532 91.799 232.368 91.9371Z" fill="#1A2038"/>
    <path d="M217.576 94.3152C216.007 94.7015 215.458 94.8577 214.957 95.4444C214.457 96.0312 214.357 96.5634 214.603 97.6791C214.849 98.7949 215.137 100.21 215.608 103.248C216.073 106.317 215.917 108.362 216.206 108.902C216.464 109.437 217.974 109.363 218.592 109.188C219.211 109.012 221.712 108.509 222.338 107.946C222.964 107.383 223.202 106.811 223.276 105.723C223.356 104.604 222.353 96.2484 221.972 95.3341C221.59 94.4199 221.044 93.8637 220.029 93.9001C218.876 93.9756 218.564 94.0791 217.576 94.3152Z" stroke="#C2C3C9" stroke-width="1.8304" stroke-miterlimit="10"/>

</svg>
