<svg width="375" height="276" viewBox="0 0 375 276" fill="none"
    xmlns="http://www.w3.org/2000/svg">
    <defs>
        <filter id="filter0_f_2_143" x="71" y="-192" width="567" height="567" filterUnits="userSpaceOnUse" color-interpolation-filters="sRGB">
            <feFlood flood-opacity="0" result="BackgroundImageFix"/>
            <feBlend mode="normal" in="SourceGraphic" in2="BackgroundImageFix" result="shape"/>
            <feGaussianBlur stdDeviation="90" result="effect1_foregroundBlur_2_143"/>
        </filter>
        <linearGradient id="paint0_linear_2_143" x1="321.557" y1="52.2713" x2="303.435" y2="68.9697" gradientUnits="userSpaceOnUse">
            <stop stop-color="#D7D8E3"/>
            <stop offset="1" stop-color="#9D9EA6"/>
        </linearGradient>
        <linearGradient id="paint1_linear_2_143" x1="311.318" y1="58.8295" x2="313.607" y2="56.4815" gradientUnits="userSpaceOnUse">
            <stop stop-color="#DEDFEB"/>
            <stop offset="0.3543" stop-color="#CBCCD7"/>
            <stop offset="0.4533" stop-color="#B5B6BF"/>
            <stop offset="0.5235" stop-color="#B0B1BA"/>
            <stop offset="0.6086" stop-color="#A2A3AB"/>
            <stop offset="0.7012" stop-color="#8C8D93"/>
            <stop offset="0.7065" stop-color="#8A8B91"/>
            <stop offset="0.7143" stop-color="#8E8F95"/>
            <stop offset="0.7568" stop-color="#9FA0A8"/>
            <stop offset="0.8069" stop-color="#ACADB5"/>
            <stop offset="0.8713" stop-color="#B3B4BD"/>
            <stop offset="1" stop-color="#B5B6BF"/>
        </linearGradient>
        <linearGradient id="paint2_linear_2_143" x1="331.703" y1="114.29" x2="313.7" y2="96.9372" gradientUnits="userSpaceOnUse">
            <stop stop-color="#B8B9BF"/>
            <stop offset="0.0778034" stop-color="#BEBFC5"/>
            <stop offset="0.3641" stop-color="#CFD0D8"/>
            <stop offset="0.6646" stop-color="#DADBE2"/>
            <stop offset="1" stop-color="#DDDEE6"/>
        </linearGradient>
        <linearGradient id="paint3_linear_2_143" x1="319.831" y1="106.67" x2="309.523" y2="89.5842" gradientUnits="userSpaceOnUse">
            <stop stop-color="#DDDEE6"/>
            <stop offset="1" stop-color="#E9EAF2"/>
        </linearGradient>
        <linearGradient id="paint4_linear_2_143" x1="384.33" y1="95.5557" x2="372.688" y2="114.277" gradientUnits="userSpaceOnUse">
            <stop stop-color="#D7D8E3"/>
            <stop offset="1" stop-color="#9D9EA6"/>
        </linearGradient>
        <linearGradient id="paint5_linear_2_143" x1="378.592" y1="105.843" x2="380.612" y2="101.921" gradientUnits="userSpaceOnUse">
            <stop stop-color="#DEDFEB"/>
            <stop offset="0.3543" stop-color="#CBCCD7"/>
            <stop offset="0.4533" stop-color="#B5B6BF"/>
            <stop offset="0.5235" stop-color="#B0B1BA"/>
            <stop offset="0.6086" stop-color="#A2A3AB"/>
            <stop offset="0.7012" stop-color="#8C8D93"/>
            <stop offset="0.7065" stop-color="#8A8B91"/>
            <stop offset="0.7143" stop-color="#8E8F95"/>
            <stop offset="0.7568" stop-color="#9FA0A8"/>
            <stop offset="0.8069" stop-color="#ACADB5"/>
            <stop offset="0.8713" stop-color="#B3B4BD"/>
            <stop offset="1" stop-color="#B5B6BF"/>
        </linearGradient>
        <linearGradient id="paint6_linear_2_143" x1="92.6845" y1="63.5908" x2="96.0882" y2="60.7751" gradientUnits="userSpaceOnUse">
            <stop stop-color="#DEDFEB"/>
            <stop offset="0.3543" stop-color="#CBCCD7"/>
            <stop offset="0.4533" stop-color="#B5B6BF"/>
            <stop offset="0.5235" stop-color="#B0B1BA"/>
            <stop offset="0.6086" stop-color="#A2A3AB"/>
            <stop offset="0.7012" stop-color="#8C8D93"/>
            <stop offset="0.7065" stop-color="#8A8B91"/>
            <stop offset="0.7143" stop-color="#8E8F95"/>
            <stop offset="0.7568" stop-color="#9FA0A8"/>
            <stop offset="0.8069" stop-color="#ACADB5"/>
            <stop offset="0.8713" stop-color="#B3B4BD"/>
            <stop offset="1" stop-color="#B5B6BF"/>
        </linearGradient>
        <linearGradient id="paint7_linear_2_143" x1="224.273" y1="116.785" x2="228.163" y2="98.9099" gradientUnits="userSpaceOnUse">
            <stop stop-color="#DDDEE6"/>
            <stop offset="0.3948" stop-color="#E2E3EB"/>
            <stop offset="0.848" stop-color="#EFF0F9"/>
            <stop offset="1" stop-color="#F5F6FF"/>
        </linearGradient>
        <linearGradient id="paint8_linear_2_143" x1="197.922" y1="104.538" x2="216.539" y2="105.525" gradientUnits="userSpaceOnUse">
            <stop stop-color="#B5B6BF"/>
            <stop offset="1" stop-color="#919299"/>
        </linearGradient>
        <linearGradient id="paint9_linear_2_143" x1="234.932" y1="90.9145" x2="165.565" y2="138.328" gradientUnits="userSpaceOnUse">
            <stop stop-color="#DDDEE6"/>
            <stop offset="1" stop-color="#E9EAF2"/>
        </linearGradient>
        <linearGradient id="paint10_linear_2_143" x1="299.04" y1="214.088" x2="295.705" y2="220.393" gradientUnits="userSpaceOnUse">
            <stop stop-color="#DEDFEB"/>
            <stop offset="0.3543" stop-color="#CBCCD7"/>
            <stop offset="0.4533" stop-color="#B5B6BF"/>
            <stop offset="0.5235" stop-color="#B0B1BA"/>
            <stop offset="0.6086" stop-color="#A2A3AB"/>
            <stop offset="0.7012" stop-color="#8C8D93"/>
            <stop offset="0.7065" stop-color="#8A8B91"/>
            <stop offset="0.7143" stop-color="#8E8F95"/>
            <stop offset="0.7568" stop-color="#9FA0A8"/>
            <stop offset="0.8069" stop-color="#ACADB5"/>
            <stop offset="0.8713" stop-color="#B3B4BD"/>
            <stop offset="1" stop-color="#B5B6BF"/>
        </linearGradient>
        <linearGradient id="paint11_linear_2_143" x1="87.108" y1="106.14" x2="135.639" y2="108.711" gradientUnits="userSpaceOnUse">
            <stop stop-color="#4A5B75"/>
            <stop offset="0.2359" stop-color="#4C5D78"/>
            <stop offset="0.3873" stop-color="#526480"/>
            <stop offset="0.5148" stop-color="#5D718F"/>
            <stop offset="0.6284" stop-color="#6C82A4"/>
            <stop offset="0.6596" stop-color="#7188AB"/>
            <stop offset="0.6719" stop-color="#6D83A5"/>
            <stop offset="0.7265" stop-color="#5E7292"/>
            <stop offset="0.7891" stop-color="#536684"/>
            <stop offset="0.8662" stop-color="#4D5F7B"/>
            <stop offset="1" stop-color="#4B5D79"/>
        </linearGradient>
        <linearGradient id="paint12_linear_2_143" x1="190.625" y1="105.202" x2="194.026" y2="99.2152" gradientUnits="userSpaceOnUse">
            <stop stop-color="#AAAAB0"/>
            <stop offset="0.0214731" stop-color="#ACACB2"/>
            <stop offset="0.4116" stop-color="#C7C7CE"/>
            <stop offset="0.7511" stop-color="#D7D8E0"/>
            <stop offset="1" stop-color="#DDDEE6"/>
        </linearGradient>
        <linearGradient id="paint13_linear_2_143" x1="278.409" y1="164.145" x2="280.592" y2="140.943" gradientUnits="userSpaceOnUse">
            <stop stop-color="#B8B9BF"/>
            <stop offset="0.0915518" stop-color="#BDBEC4"/>
            <stop offset="0.1966" stop-color="#CACBD2"/>
            <stop offset="0.2975" stop-color="#DDDEE6"/>
            <stop offset="0.5749" stop-color="#E2E3EB"/>
            <stop offset="0.8932" stop-color="#EFF0F9"/>
            <stop offset="1" stop-color="#F5F6FF"/>
        </linearGradient>
        <linearGradient id="paint14_linear_2_143" x1="251.264" y1="144.902" x2="272.329" y2="146.018" gradientUnits="userSpaceOnUse">
            <stop stop-color="#B5B6BF"/>
            <stop offset="1" stop-color="#919299"/>
        </linearGradient>
        <radialGradient id="paint15_radial_2_143" cx="0" cy="0" r="1" gradientUnits="userSpaceOnUse" gradientTransform="translate(267.287 146.601) rotate(3.03236) scale(2.16086)">
            <stop stop-color="#C7C8CF"/>
            <stop offset="0.2399" stop-color="#BABBC2"/>
            <stop offset="0.6944" stop-color="#A6A7AD"/>
            <stop offset="1" stop-color="#9FA0A6"/>
        </radialGradient>
    </defs>
    <mask id="mask0_2_143" style="mask-type:alpha" maskUnits="userSpaceOnUse" x="0" y="0" width="375" height="276">
        <rect width="375" height="276" fill="#D9D9D9"/>
    </mask>
    <g mask="url(#mask0_2_143)">
        <g filter="url(#filter0_f_2_143)">
            <circle cx="354.5" cy="91.5" r="103.5" fill="#FFF5E1"/>
        </g>
        <path d="M330.564 76.1255L291.78 38.0261C291.78 38.0261 302.477 39.7123 303.004 40.0285C303.531 40.3447 345.161 72.1206 345.161 72.1206C345.161 72.1206 332.198 76.4944 330.564 76.1255Z" fill="url(#paint0_linear_2_143)"/>
        <path d="M335.096 75.2823C332.936 75.862 331.091 76.2835 330.564 76.1782L291.78 38.0787C291.78 38.0787 292.992 38.2895 294.626 38.553L335.096 75.2823Z" fill="url(#paint1_linear_2_143)"/>
        <path d="M272.335 115.226C272.335 115.226 274.759 112.275 276.287 111.801C277.868 111.326 285.773 112.328 287.353 111.695C288.934 111.063 334.411 71.8569 337.678 70.9084C340.946 69.9599 353.277 75.9672 354.91 77.7062C357.018 79.9195 354.91 81.2896 354.383 81.4477C353.224 81.8165 351.063 80.868 350.326 80.9734C349.641 81.0788 315.968 130.034 315.968 130.034C315.968 130.034 277.868 127.03 272.335 115.226Z" fill="url(#paint2_linear_2_143)"/>
        <path d="M354.488 81.395C349.008 78.9709 340.682 75.5984 338.1 75.8091C334.147 76.178 296.733 110.325 293.782 113.276C290.831 116.227 287.458 116.28 283.295 115.226C279.132 114.172 276.234 116.543 276.234 116.543C276.234 116.543 275.391 117.018 274.021 117.597C273.336 116.86 272.756 116.069 272.387 115.226C272.387 115.226 274.811 112.275 276.34 111.801C277.92 111.326 285.825 112.328 287.406 111.695C288.987 111.063 334.464 71.8569 337.731 70.9084C340.998 69.9599 353.329 75.9672 354.962 77.7062C356.965 79.8141 355.12 81.1842 354.488 81.395Z" fill="url(#paint3_linear_2_143)"/>
        <path d="M336.15 100.893C335.518 101.736 334.885 102.684 334.306 103.58C327.666 100.998 311.067 101.63 311.067 101.63C325.189 98.7847 332.409 100.313 336.15 100.893Z" fill="#144DDE"/>
        <path d="M343.844 89.8264C342.948 91.0911 341.999 92.4612 340.998 93.884C340.893 94.0421 340.787 94.2529 340.629 94.411C340.26 94.938 339.892 95.4649 339.523 95.9919C339.259 96.3608 339.048 96.7296 338.785 97.0458C338.416 97.5728 338.047 98.0997 337.678 98.6794C334.042 97.6255 323.608 96.7296 300.159 101.262C301.739 99.9441 303.478 98.5213 305.217 97.0458C320.552 90.7223 329.51 88.0348 343.844 89.8264Z" fill="#144DDE"/>
        <path d="M336.203 75.7039C333.673 77.4956 335.676 80.6047 337.942 82.0802C340.26 83.6084 415.721 122.235 417.197 122.709C418.725 123.236 427.789 123.394 428 123.025C428.158 122.604 354.436 80.1831 353.751 79.5507C353.118 79.0238 339.681 73.2272 336.203 75.7039Z" fill="url(#paint4_linear_2_143)"/>
        <path d="M428 123.078C427.842 123.5 418.725 123.289 417.25 122.762C415.722 122.288 340.261 83.6611 337.995 82.1329C336.203 80.9209 334.622 78.8131 335.202 77.0741C349.43 84.03 418.146 121.497 418.146 121.497L427.789 122.867C427.895 122.973 428 123.025 428 123.078Z" fill="url(#paint5_linear_2_143)"/>
        <path d="M119.779 92.7248C119.779 92.7248 77.3588 41.2932 74.197 37.341C71.0352 33.3888 71.0879 22.9549 73.512 20.7417C74.8294 19.5297 78.0439 20.0039 78.5708 20.7417C79.0978 21.4794 80.4679 27.6976 83.3135 31.8079C89.1101 40.0812 100.756 50.7259 110.926 60.4747C129.897 78.5495 148.499 94.5692 148.499 94.5692C148.499 94.5692 136.273 98.7849 119.779 92.7248Z" fill="#D5D6E0"/>
        <path d="M126.103 94.6217C124.1 94.1474 121.94 93.5151 119.779 92.7246C119.779 92.7246 77.3585 41.293 74.1967 37.3408C71.0349 33.3886 71.0876 22.9547 73.5116 20.7942C73.7751 20.5307 74.144 20.3726 74.5656 20.2672C72.0361 22.902 72.2469 29.0675 75.1979 35.1803C78.4124 41.8727 120.938 88.7724 123.415 91.4599L126.103 94.6217Z" fill="url(#paint6_linear_2_143)"/>
        <path d="M207.835 95.2543C207.835 95.2543 214.053 95.307 224.645 97.731C235.184 100.155 244.195 106.057 248.516 110.536C252.837 115.015 247.568 118.704 244.88 119.547C242.193 120.39 230.283 121.392 218.796 118.915C207.308 116.491 203.198 114.172 201.827 112.539C200.457 110.905 200.668 98.7323 207.835 95.2543Z" fill="url(#paint7_linear_2_143)"/>
        <path d="M216.477 106.11C215.844 111.485 210.944 115.331 205.937 114.804C200.931 114.277 197.348 109.429 197.98 104.054C198.613 98.6794 203.197 94.7799 208.203 95.2541C214.632 95.8865 217.109 100.735 216.477 106.11Z" fill="url(#paint8_linear_2_143)"/>
        <path d="M205.519 113.431C201.442 112.969 198.564 108.82 199.092 104.165C199.62 99.5091 203.353 96.1095 207.43 96.5716C211.507 97.0337 214.385 101.182 213.857 105.838C213.33 110.494 209.597 113.893 205.519 113.431Z" fill="#1A2038"/>
        <path d="M120.622 90.4588C103.707 91.7762 99.2801 96.5715 87.3708 100.945C78.6232 104.16 45.4245 114.541 47.0581 123.605C48.6917 132.669 63.1305 135.093 73.9332 137.2C84.736 139.308 117.777 142.733 126.155 143.735C134.534 144.736 190.656 164.128 209.89 165.973C229.124 167.817 263.06 159.544 282.558 151.06C302.056 142.575 313.596 139.256 315.651 137.517C317.706 135.778 317.443 135.672 317.97 133.881C318.497 132.142 316.916 130.034 315.072 128.98C313.227 127.926 304.269 126.081 295.89 123.868C287.511 121.655 274.706 115.068 273.02 114.752C271.334 114.436 232.549 105.161 201.511 100.998C170.578 96.9404 133.638 89.4575 120.622 90.4588Z" fill="#D5D6E0"/>
        <path d="M318.128 133.722C264.641 123.289 160.83 111.168 151.924 113.065C142.333 115.068 134.745 119.6 130.371 122.129C125.945 124.711 68.8219 126.503 56.8599 125.871C53.013 125.66 49.7985 124.922 47.1637 123.974C47.111 123.868 47.111 123.71 47.111 123.605C45.4775 114.541 78.6761 104.16 87.4237 100.945C99.3331 96.5715 103.76 91.7762 120.675 90.4587C133.638 89.4575 170.631 96.9404 201.669 101.103C232.707 105.266 271.545 114.541 273.178 114.857C274.864 115.173 288.46 120.812 296.839 123.025C305.217 125.238 313.385 128.031 315.23 129.032C316.916 130.086 318.444 132.036 318.128 133.722Z" fill="url(#paint9_linear_2_143)"/>
        <path d="M316.126 129.718C313.702 128.19 306.851 126.029 298.525 123.605C285.404 119.811 275.549 115.753 273.125 114.91" stroke="#C2C3C9" stroke-width="0.6474" stroke-miterlimit="10" stroke-linecap="round"/>
        <path d="M310.118 140.099C310.065 140.152 309.96 140.152 309.907 140.204C305.744 139.203 287.248 133.301 261.269 134.302C234.762 135.304 215.792 137.043 215.792 137.043C215.792 137.043 247.252 130.297 270.385 130.666C291.148 131.035 307.115 138.571 310.118 140.099Z" fill="#144DDE"/>
        <path d="M307.747 141.047C302.108 143.155 293.624 146.317 282.61 151.112C263.113 159.596 229.176 167.922 209.942 166.025C190.708 164.181 134.534 144.789 126.155 143.788C117.776 142.786 84.7358 139.361 73.9331 137.253C63.4465 135.198 49.5347 132.827 47.2161 124.448C49.5874 126.767 61.286 132.669 78.2015 134.408C89.1623 135.514 134.112 140.046 190.813 139.941C233.076 139.835 274.653 134.46 307.747 141.047Z" fill="#144DDE"/>
        <path d="M183.647 160.756C183.647 160.756 368.348 257.823 378.834 261.933C389.321 266.043 406.5 272.578 422.994 268.257C422.994 268.257 422.994 267.73 421.834 267.782C420.675 267.835 411.295 268.257 401.599 264.515C391.903 260.721 235.658 166.816 231.97 164.392C228.334 161.968 221.061 156.224 207.571 154.433C194.081 152.588 183.647 156.593 183.12 158.227C182.646 159.86 183.173 160.282 183.647 160.756Z" fill="#D5D6E0"/>
        <path d="M415.142 269.573C401.283 270.574 387.74 265.41 378.887 261.932C368.4 257.822 183.7 160.755 183.7 160.755C183.226 160.228 182.699 159.86 183.226 158.226C183.489 157.436 185.913 156.171 189.813 155.17C189.918 155.749 190.445 156.592 191.71 157.594C195.609 160.966 365.713 252.658 378.992 259.456C392.272 266.253 401.125 268.836 412.349 268.994C412.349 268.994 414.352 269.152 415.142 269.573Z" fill="url(#paint10_linear_2_143)"/>
        <path d="M134.745 119.547C134.218 121.128 133.428 122.024 130.319 122.129C127.209 122.235 110.557 121.392 94.2743 108.85C90.2694 105.741 88.425 103.528 87.3184 100.893C94.5905 98.2052 99.1223 95.3596 105.393 93.2518C105.393 93.3045 105.446 93.3045 105.446 93.3572C106.131 94.8327 108.133 97.4148 111.928 99.628C117.355 102.842 128.369 108.428 131.531 109.43C134.692 110.431 135.061 111.801 135.219 112.855C135.377 114.014 135.272 117.966 134.745 119.547Z" fill="#1A2038"/>
        <path d="M134.745 119.547C134.218 121.128 133.427 122.024 130.318 122.129C129.897 122.129 129.264 122.129 128.369 122.077C122.73 121.76 108.397 119.653 94.3268 108.85C90.3219 105.741 88.4775 103.528 87.3709 100.893C87.8979 100.682 88.4248 100.471 88.9518 100.313C89.6895 102.052 90.8489 103.738 93.4837 106.004L107.922 98.943C105.34 96.7824 104.286 94.8326 103.97 94.1476C103.918 94.0422 103.865 93.9368 103.865 93.8841C104.392 93.6733 104.919 93.5152 105.498 93.3045C105.498 93.3572 105.551 93.3572 105.551 93.4098C106.236 94.8853 108.239 97.4675 112.033 99.6807C117.46 102.895 128.474 108.481 131.636 109.482C134.798 110.483 135.166 111.854 135.325 112.907C135.377 114.014 135.272 117.966 134.745 119.547ZM95.3807 107.532C102.337 112.855 109.293 116.017 115.142 117.861L122.625 107.374C118.514 105.319 114.035 102.948 111.137 101.209C110.557 100.84 110.03 100.524 109.503 100.155L95.0119 107.216C95.1172 107.322 95.2226 107.427 95.3807 107.532ZM133.586 113.171C133.48 112.539 133.375 111.854 131.109 111.116C129.739 110.694 127.157 109.535 124.206 108.112L116.881 118.335C122.309 119.863 126.577 120.285 128.527 120.39C129.528 120.443 130.108 120.443 130.318 120.443C132.742 120.338 132.9 119.863 133.164 119.073C133.533 117.808 133.691 114.067 133.586 113.171Z" fill="url(#paint11_linear_2_143)"/>
        <path d="M153.083 111.221C153.03 113.171 153.926 120.654 150.448 129.032C147.181 136.99 138.908 142.207 138.908 142.944C138.855 143.682 148.393 143.998 149.447 143.946C150.501 143.893 156.983 140.468 160.408 133.722C163.833 126.977 164.624 118.124 164.465 114.752C164.307 111.379 162.779 109.64 160.988 109.219C159.196 108.85 155.086 108.217 154.242 108.744C153.294 109.219 153.083 109.271 153.083 111.221Z" stroke="#C2C3C9" stroke-width="1.2948" stroke-miterlimit="10"/>
        <path d="M176.006 123.289C175.637 123.131 174.952 123.078 174.214 123.236C173.477 123.394 173.002 124.448 172.107 127.452C171.263 130.297 170.526 132.616 172.265 133.09C174.004 133.565 175.374 131.773 176.164 129.349C177.06 126.609 177.007 124.817 176.849 124.29C176.744 123.71 176.48 123.447 176.006 123.289Z" fill="#2C416B"/>
        <path d="M185.386 124.29C185.017 124.132 184.332 124.079 183.594 124.237C182.856 124.395 182.382 125.449 181.486 128.453C180.643 131.299 179.905 133.617 181.644 134.091C183.383 134.566 184.753 132.774 185.544 130.35C186.44 127.61 186.387 125.818 186.229 125.291C186.123 124.764 185.86 124.448 185.386 124.29Z" fill="#2C416B"/>
        <path d="M194.66 125.291C194.291 125.133 193.606 125.08 192.868 125.238C192.131 125.396 191.656 126.45 190.761 129.454C189.917 132.3 189.18 134.618 190.919 135.093C192.658 135.567 194.028 133.775 194.818 131.351C195.714 128.611 195.661 126.819 195.503 126.292C195.345 125.713 195.082 125.449 194.66 125.291Z" fill="#2C416B"/>
        <path d="M203.777 126.504C203.408 126.345 202.776 126.293 202.038 126.451C201.3 126.609 200.826 127.61 199.983 130.508C199.192 133.249 198.455 135.515 200.141 135.989C201.827 136.41 203.145 134.671 203.882 132.405C204.725 129.771 204.673 127.979 204.567 127.505C204.462 126.925 204.251 126.662 203.777 126.504Z" fill="#2C416B"/>
        <path d="M212.63 127.662C212.261 127.504 211.629 127.451 210.943 127.61C210.206 127.768 209.784 128.769 208.941 131.614C208.151 134.302 207.413 136.568 209.099 136.989C210.785 137.411 212.05 135.725 212.788 133.459C213.631 130.877 213.578 129.138 213.473 128.611C213.315 128.136 213.104 127.873 212.63 127.662Z" fill="#2C416B"/>
        <path d="M190.287 100.788C190.129 100.629 197.348 95.8867 197.348 95.8867L198.613 96.2556C198.613 96.2556 193.923 100.366 193.87 100.788C193.87 101.209 194.028 101.631 194.028 101.631C194.028 101.631 191.446 102.105 190.287 100.788Z" fill="url(#paint12_linear_2_143)"/>
        <path d="M262.797 133.933C262.797 133.933 274.232 134.408 284.929 137.359C293.361 139.677 304.163 148.741 304.743 149.479C305.323 150.217 305.744 152.008 305.376 154.696C305.007 157.436 303.584 159.175 301.265 160.492C298.947 161.862 282.084 164.023 272.124 162.811C262.165 161.599 255.156 156.171 253.522 152.693C251.994 149.268 262.797 133.933 262.797 133.933Z" fill="url(#paint13_linear_2_143)"/>
        <path d="M272.283 146.686C271.492 153.062 266.222 157.699 260.426 157.014C254.629 156.329 250.572 150.585 251.309 144.209C252.047 137.833 257.37 133.196 263.166 133.881C268.963 134.566 273.02 140.31 272.283 146.686Z" fill="url(#paint14_linear_2_143)"/>
        <path d="M260.09 153.956C256.014 153.475 253.195 148.984 253.792 143.927C254.389 138.869 258.176 135.158 262.251 135.639C266.327 136.12 269.146 140.61 268.549 145.668C267.953 150.726 264.165 154.437 260.09 153.956Z" fill="#1A2038"/>
        <path d="M268.541 145.684C268.383 147.055 268.014 148.319 267.434 149.426C266.538 148.952 266.011 147.898 266.064 146.686C266.17 145.105 267.276 143.893 268.646 143.893C268.646 144.472 268.594 145.052 268.541 145.684Z" fill="url(#paint15_radial_2_143)"/>
    </g>

</svg>
