<svg width="363" height="145" viewBox="0 0 363 145" fill="none"
    xmlns="http://www.w3.org/2000/svg">
    <defs>
        <linearGradient id="paint0_linear_33_112" x1="19.25" y1="39.7635" x2="20.0293" y2="-29.0726" gradientUnits="userSpaceOnUse">
            <stop stop-color="#54559F"/>
            <stop offset="1" stop-color="#313681"/>
        </linearGradient>
        <linearGradient id="paint1_linear_33_112" x1="14.1197" y1="28.4716" x2="14.6469" y2="-18.0928" gradientUnits="userSpaceOnUse">
            <stop stop-color="#54559F"/>
            <stop offset="1" stop-color="#313681"/>
        </linearGradient>
    </defs>
    <path d="M66.4347 21.6847C66.2503 21.7544 65.4893 21.5342 64.7427 21.1962C63.7051 20.7261 63.6027 20.6257 64.3074 20.7711C65.6778 21.0528 66.8147 21.5413 66.4347 21.6847Z" fill="#2C96C6"/>
    <path d="M68.4421 22.7059C68.1984 22.7007 67.7303 22.4928 67.4015 22.245C66.9806 21.9264 66.9355 21.7963 67.2479 21.8035C67.4917 21.8086 67.9597 22.0155 68.2885 22.2644C68.7094 22.5829 68.7545 22.713 68.4421 22.7059Z" fill="#2C96C6"/>
    <path d="M76.9134 25.927C75.7048 25.6372 75.4887 25.4989 75.7007 25.1558C75.9527 24.7481 76.1043 24.7891 77.0189 25.5081L77.8311 26.1472L76.9134 25.927Z" fill="#2C96C6"/>
    <path d="M80.2851 27.3025C80.4992 27.6497 78.7232 26.9113 78.3022 26.478C77.9939 26.1605 80.3353 26.6655 81.38 27.1407C82.3438 27.5801 81.6903 27.5371 80.4818 27.0813C80.1919 26.9717 80.1264 27.0465 80.2851 27.3025Z" fill="#2C96C6"/>
    <path d="M84.1464 28.8593C84.4004 28.8491 84.1228 28.5766 83.5308 28.252C82.2557 27.5545 82.5394 27.4265 83.8535 28.1065C84.3533 28.3646 84.7609 28.719 84.7609 28.8931C84.7609 29.0683 84.9084 29.1205 85.0877 29.0099C85.2669 28.8982 86.1016 29.1041 86.9425 29.4657C87.7824 29.8272 88.6038 30.0402 88.7666 29.9399C88.9295 29.8395 89.3054 29.9091 89.6034 30.0956C90.0602 30.3823 90.0254 30.4059 89.375 30.2502C88.6191 30.0689 88.6171 30.0751 89.2214 30.5841C89.587 30.8934 89.6495 31.0399 89.375 30.9477C89.121 30.8617 88.1244 30.5431 87.1586 30.2389C86.1938 29.9348 85.484 29.5568 85.5823 29.3981C85.6827 29.2362 85.5076 29.1881 85.1839 29.2885C84.8674 29.3878 84.4004 29.3356 84.1464 29.1727C83.7357 28.9095 83.7357 28.8747 84.1464 28.8593Z" fill="#2C96C6"/>
    <path d="M96.2649 33.6547C97.5144 33.9681 97.0331 33.2716 95.7415 32.8988C94.789 32.6233 94.7849 32.6131 95.5848 32.5864C96.0406 32.5711 96.4871 32.6786 96.5783 32.8261C96.6695 32.9736 97.1273 33.1713 97.5964 33.2655C98.0644 33.3607 99.3478 33.8657 100.448 34.3891C101.547 34.9124 102.204 35.273 101.908 35.19C101.612 35.106 101.371 35.1726 101.371 35.3365C101.371 35.5003 101.569 35.6335 101.813 35.6335C102.057 35.6335 102.342 35.7707 102.445 35.9377C102.548 36.1056 101.074 35.6837 99.1675 35.0015C95.7262 33.7684 94.5575 33.2256 96.2649 33.6547Z" fill="#2C96C6"/>
    <path d="M80.1479 34.1289C80.1479 34.5693 79.3357 34.4454 78.9178 33.9425C78.6853 33.6629 78.6607 33.4806 78.8543 33.4806C79.4197 33.4806 80.1479 33.8462 80.1479 34.1289Z" fill="#2C96C6"/>
    <path d="M88.7881 37.4791C88.6447 37.4791 88.3549 37.2722 88.1449 37.0182C87.8325 36.6423 87.8479 36.5563 88.2279 36.5563C88.4839 36.5563 88.7738 36.7642 88.8711 37.0182C88.9684 37.2722 88.9305 37.4791 88.7881 37.4791Z" fill="#2C96C6"/>
    <path d="M109.059 38.4071C109.47 38.3948 109.47 38.3599 109.059 38.0947C108.497 37.7311 108.983 37.7311 109.829 38.0947C110.248 38.2749 110.297 38.3692 109.982 38.3917C109.685 38.4122 109.795 38.5894 110.289 38.8874L111.059 39.3504L110.289 39.1465C109.151 38.8444 108.453 38.4255 109.059 38.4071Z" fill="#2C96C6"/>
    <path d="M111.461 39.334C111.682 39.3288 111.787 39.1998 111.692 39.0462C111.596 38.8925 111.824 38.8464 112.196 38.9437C112.841 39.1127 112.844 39.1312 112.272 39.3544C111.921 39.4927 111.854 39.5982 112.109 39.6105C112.349 39.6228 112.464 39.714 112.363 39.8143C112.263 39.9147 111.929 39.8491 111.62 39.6699C111.288 39.4774 111.224 39.3401 111.461 39.334Z" fill="#2C96C6"/>
    <path d="M96.7565 41.3066C95.4834 41.0608 95.4015 41.0055 95.6678 40.5743C95.8706 40.2476 96.3079 40.4022 97.3721 41.1786C97.7224 41.4346 97.5759 41.4654 96.7565 41.3066Z" fill="#2C96C6"/>
    <path d="M101.196 42.7077C100.463 42.7077 99.484 42.0993 99.6878 41.7695C99.9111 41.41 99.9203 41.41 100.889 41.7777C101.758 42.1086 101.956 42.7077 101.196 42.7077Z" fill="#2C96C6"/>
    <path d="M123.669 43.1358C123.162 43.0222 122.689 42.8798 122.618 42.8183C122.31 42.552 123.715 42.7487 124.131 43.0293C124.468 43.2577 124.343 43.2864 123.669 43.1358Z" fill="#2C96C6"/>
    <path d="M122.055 43.6264C121.674 43.6285 121.362 43.4923 121.362 43.3233C121.362 42.9382 121.689 42.9382 122.285 43.3233C122.658 43.564 122.614 43.6224 122.055 43.6264Z" fill="#2C96C6"/>
    <path d="M107.214 44.8391C105.22 44.5134 103.831 43.9859 103.831 43.5558C103.831 43.3868 104.061 43.438 104.342 43.6705C104.741 43.9993 104.882 44.0075 104.983 43.7074C105.148 43.2178 105.702 43.2014 105.6 43.6899C105.557 43.8907 105.795 44.114 106.128 44.1867C106.673 44.3045 106.69 44.2604 106.296 43.7432C105.933 43.2669 105.932 43.2342 106.291 43.5537C106.528 43.7657 106.971 43.9388 107.275 43.9388C107.58 43.9388 107.829 44.0853 107.829 44.2645C107.829 44.4438 107.961 44.5083 108.123 44.4079C108.448 44.2072 110.598 45.0173 110.598 45.34C110.598 45.4516 110.217 45.4465 109.752 45.3287C109.287 45.2109 108.145 44.9907 107.214 44.8391Z" fill="#2C96C6"/>
    <path d="M112.346 47.1979C112.04 47.0996 111.875 46.8793 111.98 46.7083C112.305 46.1829 115.211 47.286 115.211 47.9343C115.211 48.0685 115.573 48.2682 116.016 48.3798C116.459 48.4915 116.746 48.6574 116.655 48.7485C116.563 48.8397 115.682 48.5693 114.697 48.1463C113.71 47.7243 112.653 47.2972 112.346 47.1979Z" fill="#2C96C6"/>
    <path d="M120.132 50.1056C120.542 50.0831 120.542 50.0472 120.132 49.782C119.734 49.5249 119.741 49.4839 120.187 49.4798C120.471 49.4768 120.911 49.6826 121.165 49.9356C121.682 50.4528 122.285 50.5471 122.285 50.1118C122.285 49.9366 122.662 49.9336 123.25 50.1015C124.657 50.5051 124.692 50.7038 123.323 50.5122C122.427 50.3873 122.246 50.4282 122.592 50.6751C123.172 51.0878 123.088 51.0807 121.209 50.5583C120.363 50.3238 119.878 50.12 120.132 50.1056Z" fill="#2C96C6"/>
    <path d="M142.655 50.7048C141.883 50.7048 141.875 50.6874 142.449 50.2531C143.162 49.7144 143.223 49.7072 143.815 50.0903C144.107 50.2787 144.139 50.3893 143.902 50.3924C143.695 50.3955 143.569 50.5706 143.62 50.7816C143.672 50.9936 143.656 51.0622 143.586 50.9352C143.514 50.8093 143.095 50.7048 142.655 50.7048Z" fill="#2C96C6"/>
    <path d="M124.198 51.7392C124.03 51.8437 123.722 51.7229 123.513 51.4709C123.097 50.9701 123.423 50.8656 124.087 51.2865C124.34 51.4473 124.384 51.6245 124.198 51.7392Z" fill="#2C96C6"/>
    <path d="M147.327 52.5504C147.087 52.5504 146.891 52.4316 146.891 52.2851C146.891 52.1397 147.535 52.1684 148.323 52.3487C149.721 52.6682 149.733 52.6815 148.86 52.915C148.328 53.0584 147.926 53.0328 147.865 52.8526C147.808 52.6866 147.566 52.5504 147.327 52.5504Z" fill="#2C96C6"/>
    <path d="M131.437 53.6514C131.339 53.7487 130.866 53.6033 130.386 53.3278L129.513 52.8259L130.435 53.0205C131.462 53.2377 131.701 53.3872 131.437 53.6514Z" fill="#2C96C6"/>
    <path d="M149.234 53.7805C148.98 53.7805 148.687 53.6422 148.583 53.4732C148.478 53.3042 148.6 53.166 148.854 53.166C149.107 53.166 149.401 53.3042 149.506 53.4732C149.61 53.6422 149.488 53.7805 149.234 53.7805Z" fill="#2C96C6"/>
    <path d="M130.956 54.2506C130.886 54.1799 131.295 53.9894 131.863 53.8256C133.229 53.4333 133.358 53.4261 133.358 53.7406C133.358 54.0151 131.183 54.477 130.956 54.2506Z" fill="#2C96C6"/>
    <path d="M158.271 56.0973C158.271 56.2755 156.624 55.6098 155.327 54.9082C154.831 54.6398 154.604 54.4145 154.821 54.4083C155.27 54.394 158.271 55.8638 158.271 56.0973Z" fill="#2C96C6"/>
    <path d="M162.269 57.0518C162.269 57.5004 161.332 57.1399 160.116 56.2233C159.728 55.9303 159.745 55.9047 160.222 56.0594C160.533 56.1608 161.122 56.3277 161.529 56.4301C161.936 56.5315 162.269 56.8122 162.269 57.0518Z" fill="#2C96C6"/>
    <path d="M157.656 57.4339C157.402 57.44 156.78 57.2536 156.272 57.0211C155.083 56.4773 155.637 56.4691 157.041 57.0098C157.633 57.2382 157.909 57.4287 157.656 57.4339Z" fill="#2C96C6"/>
    <path d="M164.009 58.7869C163.432 58.6762 163.266 58.539 163.521 58.3813C163.733 58.2502 164.154 58.2983 164.458 58.4878C165.171 58.9333 165.081 58.9927 164.009 58.7869Z" fill="#2C96C6"/>
    <path d="M173.887 62.1616C173.672 61.9865 173.219 61.7755 172.88 61.6926C172.396 61.5737 172.437 61.5338 173.079 61.5061C173.573 61.4836 173.967 61.668 174.085 61.9752C174.231 62.3552 174.182 62.4013 173.887 62.1616Z" fill="#2C96C6"/>
    <path d="M160.501 64.5409C160.121 64.544 159.809 64.4077 159.809 64.2377C159.809 63.8526 160.135 63.8526 160.732 64.2377C161.105 64.4794 161.061 64.5368 160.501 64.5409Z" fill="#2C96C6"/>
    <path d="M184.569 66.0219C184.231 66.0219 183.607 65.9113 183.185 65.7761C182.575 65.5815 182.544 65.5293 183.03 65.5293C183.369 65.5293 183.992 65.6409 184.415 65.7761C185.023 65.9707 185.055 66.0219 184.569 66.0219Z" fill="#2C96C6"/>
    <path d="M160.244 66.6938C159.921 66.6917 159.448 66.5484 159.194 66.3773C158.857 66.1489 158.982 66.1202 159.656 66.2708C160.786 66.5238 161.031 66.6999 160.244 66.6938Z" fill="#2C96C6"/>
    <path d="M188.679 67.3186C188.402 67.3155 187.711 67.1117 187.141 66.8648C186.572 66.617 186.224 66.4101 186.366 66.4029C186.806 66.3824 190.086 67.3739 190.413 67.6258C190.582 67.7559 191.343 68.0785 192.104 68.3428C192.865 68.606 193.257 68.8293 192.975 68.8375C192.694 68.8446 191.809 68.5712 191.011 68.2291C190.209 67.886 189.268 67.6883 188.909 67.7876C188.391 67.9321 188.353 67.9034 188.721 67.6463C189.123 67.3646 189.118 67.3227 188.679 67.3186Z" fill="#2C96C6"/>
    <path d="M165.166 68.2322C164.841 68.2291 164.369 68.0867 164.115 67.9147C163.778 67.6873 163.902 67.6586 164.576 67.8092C165.708 68.0621 165.952 68.2383 165.166 68.2322Z" fill="#2C96C6"/>
    <path d="M175.521 69.6128C175.197 69.7152 174.843 69.6558 174.734 69.4796C174.349 68.8559 175.771 69.1703 177.621 70.1177C179.577 71.1174 179.974 71.6233 178.801 71.6151C178.281 71.6121 178.216 71.5434 178.539 71.3386C179.158 70.9473 177.335 70.0563 176.209 70.1997C175.732 70.2601 175.514 70.2488 175.725 70.173C176.357 69.9487 176.161 69.41 175.521 69.6128Z" fill="#2C96C6"/>
    <path d="M182.049 72.9487C181.907 72.7489 181.169 72.5257 180.411 72.454L179.032 72.3229L180.545 72.3556C181.611 72.3792 182.097 72.5257 182.184 72.8503C182.27 73.1689 182.228 73.1996 182.049 72.9487Z" fill="#2C96C6"/>
    <path d="M185.029 73.1791C185.029 73.6574 183.719 73.3901 183.55 72.878C183.45 72.5738 183.566 72.5052 183.937 72.6475C184.227 72.7592 184.592 72.8503 184.748 72.8503C184.902 72.8503 185.029 72.9978 185.029 73.1791Z" fill="#2C96C6"/>
    <path d="M184.375 76.1975C184.1 76.2169 183.702 76.0254 183.492 75.7724C183.228 75.4529 183.216 75.3105 183.454 75.3105C183.644 75.3105 183.799 75.4385 183.799 75.5963C183.799 75.753 184.042 75.9445 184.338 76.0213C184.792 76.1401 184.798 76.1678 184.375 76.1975Z" fill="#2C96C6"/>
    <path d="M207.175 76.3644C206.752 76.2518 206.198 76.0305 205.945 75.8738C205.624 75.6761 205.718 75.6516 206.252 75.795C206.675 75.9076 207.228 76.1288 207.482 76.2856C207.803 76.4832 207.71 76.5078 207.175 76.3644Z" fill="#2C96C6"/>
    <path d="M210.404 77.745C210.235 77.745 209.613 77.4808 209.021 77.1561C208.429 76.8325 208.082 76.5672 208.251 76.5672C208.42 76.5672 209.043 76.8325 209.635 77.1561C210.227 77.4808 210.573 77.745 210.404 77.745Z" fill="#2C96C6"/>
    <path d="M197.926 80.5391C197.408 80.5391 197.372 80.4664 197.705 80.0895C198.2 79.5292 198.156 79.5303 198.367 80.0782C198.488 80.3937 198.348 80.5391 197.926 80.5391Z" fill="#2C96C6"/>
    <path d="M200.481 80.4224C200.774 80.1991 200.912 79.9051 200.788 79.7679C200.664 79.6306 200.738 79.6194 200.952 79.7423C201.166 79.8662 201.268 80.0833 201.18 80.2267C201.092 80.3701 201.194 80.5565 201.406 80.6426C201.619 80.7286 201.377 80.8054 200.87 80.8126C200.042 80.8259 200.002 80.7859 200.481 80.4224Z" fill="#2C96C6"/>
    <path d="M220.547 88.3293C220.696 87.8018 220.585 87.6308 220.03 87.5253C219.417 87.4075 219.407 87.3839 219.948 87.3481C220.291 87.3245 220.844 87.4956 221.178 87.7281C221.512 87.9606 222.269 88.2535 222.861 88.3795C224.047 88.6324 225.138 89.1302 224.94 89.3279C224.87 89.3975 223.943 89.1609 222.88 88.8025C221.265 88.2566 220.899 88.2187 220.654 88.573C220.443 88.8783 220.413 88.8086 220.547 88.3293Z" fill="#2C96C6"/>
    <path d="M248.47 90.5508C247.922 90.432 247.395 90.2067 247.299 90.051C247.103 89.7345 248.174 89.6546 248.483 89.9619C248.59 90.0694 249.213 90.2056 249.868 90.264C250.523 90.3234 251.599 90.6082 252.262 90.896C253.61 91.4849 253.709 91.5156 254.464 91.5842C254.895 91.6242 254.852 91.7174 254.251 92.0502C253.562 92.4323 253.548 92.4763 254.096 92.589C254.426 92.6556 254.845 92.5142 255.028 92.2745C255.31 91.9048 255.361 91.913 255.361 92.3268C255.361 92.5962 255.212 92.8727 255.028 92.9423C254.501 93.1431 253.25 92.5726 253.463 92.2295C253.715 91.8219 252.123 91.2247 251.236 91.3948C250.855 91.4675 250.542 91.407 250.542 91.2616C250.542 91.1162 250.785 90.9861 251.081 90.9728C251.419 90.9574 251.472 90.8898 251.224 90.7894C251.007 90.7024 250.616 90.8079 250.355 91.025C250.031 91.2944 249.815 91.3149 249.674 91.0926C249.559 90.9134 249.018 90.6696 248.47 90.5508Z" fill="#2C96C6"/>
    <path d="M221.97 90.812C221.444 90.5508 221.015 90.2906 221.015 90.2343C221.015 89.9834 222.261 90.4893 222.574 90.8683C222.837 91.1858 222.69 91.1725 221.97 90.812Z" fill="#2C96C6"/>
    <path d="M233.468 93.9594C233.209 93.86 233.1 93.5835 233.208 93.3018C233.374 92.8686 233.454 92.8758 233.927 93.3674C234.482 93.942 234.238 94.2554 233.468 93.9594Z" fill="#2C96C6"/>
    <path d="M233.142 94.8197C231.849 94.5114 231.375 94.2103 231.292 93.6439C231.252 93.3705 231.348 93.226 231.505 93.3233C231.662 93.4206 231.702 93.6439 231.593 93.8191C231.466 94.0249 231.655 94.0649 232.127 93.9317C232.719 93.7637 232.77 93.7914 232.396 94.0792C232.013 94.3732 232.051 94.408 232.615 94.2851C232.999 94.2011 233.458 94.3312 233.668 94.5852C233.986 94.9672 233.907 95.002 233.142 94.8197Z" fill="#2C96C6"/>
    <path d="M257.286 93.7791C256.832 94.0598 256.016 93.8078 256.235 93.4544C256.319 93.3182 256.675 93.2834 257.028 93.3756C257.478 93.4934 257.555 93.6132 257.286 93.7791Z" fill="#2C96C6"/>
    <path d="M260.692 96.5332C261.304 96.9286 260.535 96.9286 259.616 96.5332L259.001 96.269L259.616 96.2516C259.954 96.2423 260.438 96.3694 260.692 96.5332Z" fill="#2C96C6"/>
    <path d="M268.382 97.6865C268.382 97.4519 267.932 97.0361 267.382 96.7627C266.832 96.4892 266.535 96.2557 266.721 96.2454C267.319 96.2106 268.997 96.8917 268.997 97.1693C268.997 97.3157 269.227 97.3485 269.509 97.2399C269.866 97.1037 269.949 97.159 269.785 97.4243C269.635 97.6681 269.775 97.8637 270.175 97.9682C270.519 98.0583 270.872 98.3195 270.96 98.5489C271.089 98.8858 270.974 98.9002 270.366 98.6237C269.951 98.4342 269.612 98.1546 269.612 98.0009C269.612 97.8473 269.336 97.8094 268.997 97.9169C268.584 98.048 268.382 97.9722 268.382 97.6865Z" fill="#2C96C6"/>
    <path d="M272.386 98.7527C271.872 98.6769 271.371 98.4874 271.274 98.3307C271.172 98.1648 271.462 98.132 271.97 98.2519C273.199 98.5427 273.511 98.9176 272.386 98.7527Z" fill="#2C96C6"/>
    <path d="M249.459 99.02C248.956 98.8561 248.266 98.6493 247.928 98.5602C247.589 98.4711 247.855 98.4577 248.516 98.5304C249.179 98.6042 249.867 98.8111 250.048 98.9913C250.279 99.2218 250.106 99.231 249.459 99.02Z" fill="#2C96C6"/>
    <path d="M281.915 102.224C281.411 102.113 280.92 101.894 280.824 101.738C280.532 101.266 281.17 101.417 282.523 102.139C283.229 102.516 283.642 102.878 283.441 102.945C283.177 103.033 283.192 103.14 283.495 103.332C283.826 103.542 283.805 103.599 283.394 103.602C283.108 103.605 282.789 103.469 282.684 103.3C282.58 103.13 282.648 102.992 282.838 102.992C283.503 102.992 282.819 102.421 281.915 102.224Z" fill="#2C96C6"/>
    <path d="M278.352 103.295C278.028 103.292 277.555 103.15 277.301 102.979C276.964 102.75 277.089 102.722 277.763 102.872C278.894 103.125 279.139 103.301 278.352 103.295Z" fill="#2C96C6"/>
    <path d="M266.741 105.018C266.741 105.576 266.771 105.588 265.898 104.656L265.153 103.86L265.946 104.221C266.384 104.42 266.741 104.778 266.741 105.018Z" fill="#2C96C6"/>
    <path d="M267.125 105.637C267.306 105.42 267.351 105.117 267.226 104.964C267.101 104.81 267.413 105.03 267.92 105.453C268.428 105.876 268.913 106.279 268.997 106.347C269.082 106.417 268.874 106.364 268.536 106.229C268.198 106.095 267.668 105.996 267.359 106.009C266.936 106.028 266.878 105.936 267.125 105.637Z" fill="#2C96C6"/>
    <path d="M270.088 107.276C269.465 107.255 269.465 107.253 270.073 106.99C270.412 106.845 270.718 106.717 270.754 106.705C270.791 106.692 270.98 106.995 271.177 107.376C271.47 107.946 271.462 108 271.126 107.683C270.903 107.471 270.436 107.288 270.088 107.276Z" fill="#2C96C6"/>
    <path d="M296.678 110.536C296.678 110.694 294.518 109.853 294.259 109.595C294.001 109.337 294.43 109.442 295.565 109.917C296.177 110.173 296.678 110.451 296.678 110.536Z" fill="#2C96C6"/>
    <path d="M302.522 110.851C302.522 110.989 300.711 110.156 300.395 109.874C300.324 109.81 300.366 109.759 300.487 109.759C300.817 109.759 302.522 110.674 302.522 110.851Z" fill="#2C96C6"/>
    <path d="M288.826 114.065C288.323 113.642 287.854 113.262 287.785 113.219C287.714 113.177 287.783 113.144 287.938 113.147C288.327 113.153 288.754 113.492 289.287 114.218C289.624 114.676 289.506 114.637 288.826 114.065Z" fill="#2C96C6"/>
    <path d="M282.308 114.68C282.129 114.68 281.656 114.394 281.257 114.046L280.531 113.413L281.453 113.953C282.668 114.665 282.686 114.68 282.308 114.68Z" fill="#2C96C6"/>
    <path d="M294.173 116.569C293.792 116.428 293.449 116.15 293.411 115.95C293.373 115.751 293.412 115.729 293.498 115.902C293.584 116.076 293.842 116.218 294.071 116.218C294.301 116.218 294.573 116.354 294.677 116.521C294.795 116.713 294.611 116.731 294.173 116.569Z" fill="#2C96C6"/>
    <path d="M319.536 119.383C319.164 119.24 319.155 119.16 319.489 118.948C320.016 118.614 320.361 118.609 320.361 118.935C320.361 119.375 320.012 119.566 319.536 119.383Z" fill="#2C96C6"/>
    <path d="M304.659 120.28C304.161 120.206 303.752 120.093 303.752 120.028C303.752 119.793 305.258 119.914 305.409 120.161C305.495 120.299 305.157 120.352 304.659 120.28Z" fill="#2C96C6"/>
    <path d="M335.685 123.083C335.798 123.666 334.929 123.364 333.587 122.352C333.209 122.066 333.235 122.042 333.741 122.221C334.079 122.339 334.631 122.456 334.967 122.48C335.303 122.503 335.627 122.775 335.685 123.083Z" fill="#2C96C6"/>
    <path d="M315.284 124.519C315.551 124.95 314.517 124.535 313.63 123.855C313.227 123.545 313.037 123.292 313.208 123.292C313.379 123.292 313.692 123.5 313.902 123.754C314.113 124.007 314.468 124.215 314.691 124.215C314.914 124.215 315.18 124.352 315.284 124.519Z" fill="#2C96C6"/>
    <path d="M338.515 124.302C337.733 124.507 337.278 124.355 337.278 123.889C337.278 123.551 337.801 123.547 338.645 123.877C339.204 124.096 339.196 124.123 338.515 124.302Z" fill="#2C96C6"/>
    <path d="M320.684 126.956C320.156 127.303 319.864 127.162 319.43 126.35C319.03 125.606 319.641 125.527 320.533 126.208C321.039 126.594 321.061 126.709 320.684 126.956Z" fill="#2C96C6"/>
    <path d="M348.364 128.114C348.117 128.112 347.564 127.917 347.134 127.68C346.074 127.096 348.011 127.444 349.427 128.092C350.151 128.423 350.184 128.471 349.581 128.316C349.158 128.206 348.61 128.115 348.364 128.114Z" fill="#2C96C6"/>
    <path d="M350.164 129.27C350.072 129.361 349.73 129.235 349.405 128.989C349.079 128.742 348.95 128.538 349.12 128.535C349.577 128.528 350.357 129.077 350.164 129.27Z" fill="#2C96C6"/>
    <path d="M321.518 129.963C321.224 130.039 320.67 130.042 320.288 129.969C319.905 129.895 320.146 129.831 320.823 129.828C321.5 129.825 321.812 129.886 321.518 129.963Z" fill="#2C96C6"/>
    <path d="M341.737 135.165C341.103 135.165 340.825 135.066 341.05 134.923C341.259 134.79 341.568 134.681 341.737 134.681C341.906 134.681 342.217 134.79 342.426 134.923C342.651 135.066 342.372 135.165 341.737 135.165Z" fill="#2C96C6"/>
    <path d="M347.775 138.229C347.245 137.731 346.812 137.276 346.812 137.218C346.812 136.877 348.086 137.874 348.383 138.447C348.678 139.018 348.578 138.982 347.775 138.229Z" fill="#2C96C6"/>
    <path d="M350.683 139.367C350.581 139.048 350.119 138.638 349.655 138.454C349.191 138.271 349.019 138.114 349.273 138.106C349.526 138.098 350.427 138.424 351.273 138.831C352.118 139.238 352.58 139.576 352.297 139.582C352.015 139.588 351.578 139.672 351.325 139.769C351.043 139.877 350.795 139.721 350.683 139.367Z" fill="#2C96C6"/>
    <path d="M360.961 143.13C360.792 143.235 360.653 143.174 360.653 142.995C360.653 142.555 361.365 142.582 361.822 143.038C362.312 143.528 362.287 143.797 361.733 144.009C361.482 144.106 361.291 144.085 361.309 143.965C361.399 143.355 361.235 142.961 360.961 143.13Z" fill="#2C96C6"/>
    <path d="M82.4196 26.3752C82.9481 26.9037 82.2465 26.706 80.3046 25.7781C79.2896 25.2936 78.5296 24.8849 78.6167 24.8706C78.9413 24.8163 82.1184 26.0741 82.4196 26.3752Z" fill="#71A7D6"/>
    <path d="M89.3207 29.0023C89.1282 29.1948 87.2241 28.3437 87.2241 28.0662C87.2241 27.7937 87.8018 27.9176 87.9964 28.2321C88.1029 28.4041 88.2904 28.483 88.4143 28.4062C88.7236 28.2147 89.5583 28.7636 89.3207 29.0023Z" fill="#71A7D6"/>
    <path d="M90.9441 29.8585C90.2609 29.5902 89.7703 29.2604 89.8543 29.1242C90.0428 28.82 91.9314 29.584 92.0789 30.0255C92.1394 30.2068 91.6436 30.134 90.9441 29.8585Z" fill="#71A7D6"/>
    <path d="M93.9655 31.3027C93.8109 31.3027 93.6839 31.1644 93.6839 30.9954C93.6839 30.5212 94.2861 30.6308 94.8586 31.2095C95.3421 31.697 95.339 31.7164 94.8115 31.5167C94.5022 31.3989 94.1212 31.3027 93.9655 31.3027Z" fill="#71A7D6"/>
    <path d="M103.378 34.6867C102.792 34.6867 100.797 33.6409 100.94 33.4084C101.049 33.2333 101.261 33.2292 101.477 33.3992C101.674 33.5529 102.215 33.77 102.68 33.8806C103.368 34.0455 103.924 34.6867 103.378 34.6867Z" fill="#71A7D6"/>
    <path d="M104.756 35.2551C104.249 35.0789 103.834 34.8157 103.834 34.6723C103.834 34.5289 104.249 34.5556 104.756 34.7328C105.264 34.9089 105.678 35.1721 105.678 35.3155C105.678 35.4589 105.264 35.4323 104.756 35.2551Z" fill="#71A7D6"/>
    <path d="M106.268 35.9168C106.114 35.9168 105.987 35.7785 105.987 35.6095C105.987 35.164 106.397 35.2305 107.081 35.7877C107.628 36.2332 107.631 36.2588 107.114 36.096C106.805 35.9966 106.424 35.9168 106.268 35.9168Z" fill="#71A7D6"/>
    <path d="M110.6 37.3271C110.6 37.4725 108.421 36.6091 108.181 36.3684C108.102 36.2885 108.178 36.224 108.349 36.224C108.731 36.224 110.6 37.1397 110.6 37.3271Z" fill="#71A7D6"/>
    <path d="M112.625 37.7204C112.408 38.0717 110.907 37.7788 110.907 37.3855C110.907 37.2185 111.126 37.1653 111.394 37.2677C111.662 37.3701 112.085 37.4541 112.335 37.4541C112.585 37.4541 112.715 37.5739 112.625 37.7204Z" fill="#71A7D6"/>
    <path d="M114.191 38.9505C114.051 38.9822 114.01 38.889 114.1 38.7456C114.189 38.6012 115.363 38.8399 116.709 39.2762C118.377 39.8159 119.016 40.1488 118.717 40.3178C118.189 40.6179 116.981 40.2901 117.215 39.9112C117.305 39.7647 117.134 39.6551 116.835 39.6684C116.535 39.6807 115.874 39.5117 115.368 39.2926C114.859 39.0724 114.331 38.9187 114.191 38.9505Z" fill="#71A7D6"/>
    <path d="M119.758 40.9446C119.144 41.1054 118.999 40.6578 119.596 40.4438C119.807 40.369 120.327 40.4776 120.75 40.6855C121.173 40.8934 122.047 41.1587 122.693 41.2754C124.435 41.5919 127.539 43.0125 127.307 43.3884C127.183 43.5902 127.307 43.6342 127.639 43.5072C127.952 43.3863 128.758 43.6168 129.609 44.0695C130.401 44.4915 131.296 44.8366 131.599 44.8366C131.901 44.8366 132.222 45.0261 132.311 45.2596C132.401 45.4921 132.791 45.6816 133.181 45.6816C134.336 45.6816 136.154 46.3904 135.93 46.754C135.804 46.9578 135.871 46.9936 136.108 46.8482C136.534 46.585 138.897 47.5405 138.897 47.9769C138.897 48.1305 139.035 48.1704 139.204 48.066C139.373 47.9615 139.511 48.0219 139.511 48.2012C139.511 48.3804 139.616 48.5105 139.743 48.491C140.534 48.365 141.143 48.5566 140.858 48.8413C140.644 49.0554 140.032 48.9294 138.937 48.446C138.052 48.0557 137.407 47.6594 137.502 47.5641C137.597 47.4689 137.271 47.3787 136.778 47.3654C136.285 47.3511 135.279 47.0694 134.544 46.7396C133.808 46.4098 132.895 46.0452 132.515 45.9284C132.134 45.8127 131.823 45.6058 131.823 45.4696C131.823 45.3323 131.511 45.2197 131.13 45.2176C130.475 45.2146 126.921 43.7397 126.594 43.3351C126.509 43.2307 126.193 43.1026 125.892 43.0524C125.591 43.0012 124.211 42.4738 122.825 41.8807C121.438 41.2877 120.058 40.8668 119.758 40.9446Z" fill="#71A7D6"/>
    <path d="M114.291 46.1558C113.952 46.0667 113.675 45.8721 113.675 45.7226C113.675 45.402 113.774 45.3907 114.419 45.6376C115.126 45.909 115.017 46.3453 114.291 46.1558Z" fill="#71A7D6"/>
    <path d="M118.64 47.8447C118.149 48.0096 115.214 46.6987 115.214 46.3146C115.214 46.1702 115.525 46.248 115.905 46.4866C116.286 46.7253 117.152 47.0971 117.828 47.3132C118.505 47.5283 118.87 47.7679 118.64 47.8447Z" fill="#71A7D6"/>
    <path d="M124.158 49.9352C123.891 49.6945 122.979 49.2172 122.133 48.8751C120.949 48.3958 120.774 48.2493 121.373 48.236C121.801 48.2268 122.423 48.4111 122.757 48.6447C123.091 48.8782 123.503 49.0871 123.672 49.1096C125.166 49.3053 127.953 51.2953 126.733 51.2953C126.319 51.2953 125.056 50.5241 125.056 50.2721C125.056 50.1021 124.963 50.055 124.85 50.1677C124.737 50.2813 124.426 50.1769 124.158 49.9352Z" fill="#71A7D6"/>
    <path d="M143.628 49.1424C143.459 49.1424 143.051 48.9386 142.723 48.6907C142.394 48.4419 142.264 48.2391 142.433 48.2391C142.602 48.2391 143.01 48.4419 143.338 48.6907C143.667 48.9386 143.797 49.1424 143.628 49.1424Z" fill="#71A7D6"/>
    <path d="M145.041 50.7463C144.032 50.5507 141.357 49.3606 141.357 49.1066C141.357 48.7461 141.411 48.7553 142.536 49.3165C143.067 49.5818 143.636 49.716 143.799 49.6156C144.191 49.3729 146.326 50.5272 146.04 50.8262C145.917 50.9543 146.232 50.9747 146.739 50.8703C147.755 50.6613 152.444 52.1372 153.42 52.973C153.723 53.2331 154.076 53.4247 154.201 53.397C154.628 53.3038 156.121 53.8221 156.121 54.0627C156.121 54.1949 156.294 54.2891 156.505 54.2727C157.093 54.2266 160.734 55.9504 160.734 56.275C160.734 56.4318 160.907 56.4625 161.118 56.3437C161.404 56.1818 161.415 56.2218 161.163 56.4953C160.9 56.782 160.59 56.7646 159.779 56.4174C158.462 55.8541 157.363 55.4444 151.706 53.4042C149.192 52.4977 147.359 51.7122 147.63 51.6569C148.337 51.5145 148.241 50.9881 147.508 50.9881C147.17 50.9881 146.894 51.1263 146.894 51.2953C146.894 51.7183 146.406 51.6804 145.909 51.2185C145.681 51.0065 145.29 50.7945 145.041 50.7463Z" fill="#71A7D6"/>
    <path d="M133.822 53.9265C133.366 53.8825 129.67 52.4619 129.67 52.3308C129.67 52.128 130.148 52.211 131.766 52.6913C132.643 52.9515 133.36 53.3038 133.36 53.4738C133.36 53.6438 133.533 53.7545 133.745 53.7196C133.956 53.6858 134.545 53.8323 135.052 54.0464C137.328 55.0071 139.39 55.6011 140.445 55.6011C141.087 55.6011 141.757 55.8039 141.972 56.063C142.182 56.316 142.521 56.5239 142.723 56.5239C143.055 56.5239 146.257 57.8564 149.97 59.5382C150.731 59.8834 152.021 60.2377 152.836 60.3248C153.652 60.4118 154.482 60.6146 154.682 60.7754C154.881 60.9352 155.529 61.1616 156.121 61.2783C158.105 61.6696 158.308 61.7771 158.129 62.3384C157.998 62.7491 158.322 63.0441 159.506 63.5992C161.203 64.394 161.192 65.0341 159.491 64.4708C157.282 63.7385 151.341 61.3654 151.061 61.1032C150.901 60.9526 150.593 60.8297 150.379 60.8297C150.165 60.8297 148.569 60.1384 146.832 59.2924C145.096 58.4464 143.37 57.754 142.996 57.754C142.622 57.754 142.241 57.6321 142.149 57.4836C142.007 57.2552 139.597 56.1911 137.205 55.3C136.867 55.174 136.036 54.8207 135.359 54.5144C134.683 54.2072 133.991 53.9429 133.822 53.9265Z" fill="#71A7D6"/>
    <path d="M163.656 56.8609L162.93 56.231C162.102 55.513 162.46 55.3676 163.366 56.0528C163.695 56.3017 164.143 56.5086 164.361 56.5137C164.58 56.5198 165.024 56.7718 165.349 57.0739C165.674 57.3771 166.671 57.88 167.566 58.1924C168.461 58.5048 169.815 59.0691 170.577 59.446C173.055 60.6751 181.293 63.6627 183.726 64.2158C184.716 64.4401 185.711 64.9276 186.295 65.4745C186.821 65.9651 187.574 66.3666 187.969 66.3666C188.363 66.3666 188.772 66.5049 188.877 66.6739C188.982 66.8429 189.275 66.9811 189.529 66.9811C189.782 66.9811 189.916 66.8613 189.825 66.7149C189.541 66.255 192.415 66.9412 193.283 67.5404C194.161 68.1477 196.576 69.1637 196.954 69.0849C197.231 69.0265 197.795 69.2324 200.528 70.3908C201.691 70.8834 202.894 71.287 203.201 71.287C203.507 71.287 203.843 71.4262 203.948 71.5952C204.052 71.7642 204.334 71.9025 204.573 71.9025C204.813 71.9025 205.91 72.3153 207.012 72.8202C208.113 73.3241 209.641 73.8946 210.407 74.0882C211.175 74.2807 211.876 74.5603 211.968 74.7088C212.059 74.8574 212.317 74.9782 212.539 74.9782C212.761 74.9782 213.618 75.2814 214.443 75.6511C215.268 76.0209 216.428 76.3568 217.02 76.3978C218.268 76.4838 220.62 77.4179 225.786 79.8811C230.187 81.9797 231.443 82.4949 231.651 82.287C231.737 82.201 232.943 82.5379 234.332 83.0357C235.722 83.5335 237.274 84.0579 237.781 84.2013C240.093 84.8547 240.707 85.1272 242.146 86.1381C244.064 87.4869 246.194 88.4743 249.905 89.7351C251.499 90.2769 253.633 91.1219 254.65 91.6145C256.468 92.4954 257.62 92.7473 257.62 92.2639C257.62 92.1287 257.1 91.8347 256.466 91.6104C255.831 91.3851 254.759 90.8638 254.082 90.45C252.2 89.2998 253.817 89.8621 258.388 91.9474C265.303 95.101 266.514 95.7278 266.526 96.161C266.536 96.4929 266.634 96.5051 266.981 96.2173C267.321 95.9346 267.578 95.9336 268.1 96.2132C269.257 96.8319 270.646 97.1391 270.842 96.8196C270.949 96.6475 271.924 96.8892 273.18 97.4013C274.366 97.8837 275.783 98.3764 276.33 98.4962C276.877 98.6161 277.526 99.0227 277.773 99.3996C278.236 100.105 279.156 100.518 284.685 102.506C286.461 103.144 288.677 103.972 289.607 104.343C290.537 104.716 292.226 105.322 293.361 105.687C294.494 106.054 297.022 107.114 298.977 108.044C300.934 108.973 302.694 109.734 302.891 109.734C303.408 109.734 308.452 111.602 308.903 111.961C309.112 112.127 309.479 112.188 309.717 112.097C309.956 112.006 310.654 112.2 311.271 112.531C311.887 112.861 313.112 113.325 313.993 113.56C315.77 114.037 323.766 116.889 327.592 118.411C331.147 119.824 335.791 122.193 335.526 122.458C335.401 122.583 335.524 122.598 335.798 122.494C336.071 122.388 336.388 122.453 336.501 122.636C336.615 122.819 336.838 122.889 336.999 122.79C337.159 122.69 337.211 122.48 337.113 122.324C336.83 121.865 337.226 121.979 339.235 122.936C340.99 123.772 342.391 124.336 344.893 125.218C345.443 125.412 345.892 125.71 345.892 125.88C345.893 126.05 346.689 126.516 347.661 126.915C350.275 127.987 350.441 128.008 349.429 127.125L348.506 126.321L349.891 126.894C350.652 127.209 352.452 127.852 353.89 128.323C359.844 130.273 362.499 131.601 361.897 132.327C361.629 132.65 361.614 132.801 361.849 132.801C362.038 132.801 362.194 132.997 362.194 133.234C362.194 133.559 361.595 133.419 359.809 132.677C358.499 132.133 357.15 131.671 356.812 131.65C356.473 131.63 355.263 131.187 354.122 130.667C352.981 130.147 350.559 129.228 348.739 128.623C344.964 127.37 342.652 126.517 340.664 125.641C339.903 125.306 338.448 124.718 337.434 124.334C336.417 123.951 335.102 123.427 334.511 123.171C332.538 122.313 331.307 121.811 327.957 120.494C326.129 119.775 324.444 118.999 324.213 118.767C323.981 118.537 323.54 118.429 323.232 118.53C322.763 118.681 322.746 118.656 323.132 118.375C323.542 118.076 323.542 118.004 323.132 117.735C322.442 117.282 321.897 117.361 322.098 117.885C322.195 118.139 322.184 118.345 322.073 118.345C321.629 118.345 320.104 117.413 319.99 117.071C319.924 116.872 319.254 116.677 318.502 116.639C317.75 116.601 316.187 116.14 315.03 115.613C313.872 115.086 312.743 114.655 312.519 114.655C312.297 114.655 310.683 114.12 308.935 113.465C307.185 112.811 304.924 112.035 303.909 111.742C302.894 111.45 300.818 110.628 299.295 109.915C295.631 108.199 292.59 106.996 290.581 106.469C289.678 106.231 288.225 105.712 287.35 105.313C286.477 104.916 284.655 104.213 283.302 103.752C281.948 103.292 280.534 102.719 280.159 102.479C279.785 102.241 279.249 102.044 278.968 102.044C278.529 102.044 278.517 101.973 278.881 101.526C279.253 101.068 279.236 101.032 278.726 101.224C278.408 101.342 277.993 101.323 277.803 101.181C277.335 100.829 275.232 100.246 273.756 100.056C273.091 99.9711 272.198 99.6444 271.773 99.3309C271.347 99.0165 270.653 98.6806 270.23 98.5843C269.807 98.488 267.939 97.7629 266.078 96.9742C264.217 96.1846 262.072 95.3232 261.31 95.06C260.549 94.7968 259.795 94.4608 259.634 94.3143C259.473 94.1679 259.008 94.048 258.602 94.048C258.056 94.048 257.909 93.9211 258.046 93.5667C258.193 93.1826 258.091 93.1314 257.541 93.3116C256.589 93.6251 255.476 93.5083 254.718 93.0167C254.369 92.7893 253.529 92.4226 252.852 92.2024C252.175 91.9822 250.618 91.3462 249.392 90.79C248.165 90.2329 247.161 89.8539 247.161 89.9481C247.161 90.0423 246.848 89.9143 246.465 89.6634C246.082 89.4125 245.32 89.1083 244.771 88.9884C244.222 88.8676 243.857 88.633 243.961 88.4661C244.063 88.2991 243.961 88.1937 243.732 88.2305C243.504 88.2674 242.763 88.0646 242.087 87.7799C239.722 86.7823 238.082 86.1319 237.166 85.8298C236.658 85.6628 234.928 85.0032 233.321 84.3651C229.44 82.8237 229.448 82.8268 227.323 81.8804C226.308 81.4287 224.024 80.5786 222.248 79.9928C220.472 79.4059 218.188 78.5763 217.173 78.1482C215.089 77.2694 214.92 77.2028 211.938 76.0915C210.748 75.6481 209.529 75.2855 209.225 75.2855C208.355 75.2855 207.422 74.6638 207.599 74.2019C207.811 73.6498 206.802 73.3385 205.632 73.5955C204.865 73.7645 204.717 73.701 204.717 73.2063C204.717 72.6963 204.391 72.4341 202.794 71.6557C202.667 71.5942 202.564 71.7632 202.564 72.0305C202.564 72.6092 202.153 72.6492 201.238 72.1586C200.869 71.9609 199.044 71.2757 197.183 70.6356C192.44 69.004 191.532 68.6629 191.292 68.4222C191.176 68.3065 190.901 68.2112 190.68 68.2112C190.46 68.2112 189.548 67.8896 188.655 67.4963C187.762 67.103 186.443 66.5285 185.724 66.2191C185.006 65.9109 184.417 65.5462 184.417 65.409C184.417 65.2728 184.037 65.1734 183.571 65.1888C182.667 65.2175 178.796 63.7016 178.624 63.2499C178.568 63.1014 178.399 63.0543 178.249 63.1465C178.1 63.2387 176.624 62.7686 174.97 62.1018C173.314 61.434 170.299 60.2357 168.269 59.4388C166.239 58.642 164.441 57.88 164.272 57.7458C164.102 57.6116 163.444 57.4048 162.81 57.2859C162.176 57.1671 161.657 56.9367 161.657 56.7728C161.657 56.6028 162.084 56.5577 162.656 56.6683L163.656 56.8609Z" fill="#71A7D6"/>
    <path d="M162.207 64.689C162.826 64.6787 163.018 64.5364 162.95 64.1359C162.835 63.4445 163.221 63.4568 164.485 64.183C165.044 64.5056 165.969 64.8661 166.539 64.985C167.715 65.2308 169.654 66.2929 169.654 66.6923C169.654 67.1706 173.743 68.2573 174.806 68.0607C175.442 67.9439 175.805 68.0003 175.805 68.2164C175.805 68.4028 175.911 68.4908 176.039 68.4109C176.168 68.3311 176.549 68.4775 176.885 68.7367C177.476 69.1914 177.469 69.2006 176.702 69.0245C176.264 68.9231 174.88 68.7664 173.626 68.6752L171.345 68.5103L172.576 69.1341C173.647 69.6769 173.689 69.7353 172.905 69.5796C172.409 69.4823 170.316 68.581 168.254 67.5772C166.191 66.5725 164.244 65.75 163.927 65.749C162.009 65.7439 160.35 64.7197 162.207 64.689Z" fill="#71A7D6"/>
    <path d="M175.575 70.5342C174.686 70.2443 173.96 69.934 173.96 69.8428C173.96 69.7517 174.341 69.7609 174.806 69.8612C175.271 69.9626 176.724 70.1378 178.035 70.2504C179.988 70.4184 180.418 70.5495 180.418 70.9766C180.418 71.5031 180.788 71.6178 185.401 72.5201C186.365 72.7086 187.651 73.2002 188.26 73.6129C188.868 74.0257 189.562 74.3627 189.801 74.3627C190.041 74.3627 190.484 74.6177 190.788 74.9291C191.479 75.6399 192.34 75.9615 192.569 75.5917C192.723 75.3418 193.139 75.5333 195.259 76.8249C195.624 77.0471 195.797 77.0502 195.797 76.8341C195.797 76.659 196.019 76.5166 196.292 76.5166C196.616 76.5166 196.722 76.6835 196.599 77.0031C196.497 77.2704 196.413 77.6166 196.413 77.7712C196.413 77.9269 196.266 78.0539 196.087 78.0539C195.908 78.0539 195.828 77.9454 195.91 77.8132C195.992 77.6801 195.585 77.5879 195.005 77.6074C194.426 77.6258 193.952 77.5265 193.952 77.3861C193.952 77.2458 193.76 77.1311 193.525 77.1311C193.292 77.1311 192.703 76.9242 192.218 76.6723C191.734 76.4193 191.117 76.2114 190.847 76.2103C190.14 76.2073 187.305 75.1923 185.34 74.2377C184.31 73.7379 183.377 73.4839 182.956 73.5884C182.575 73.6826 182.264 73.6211 182.264 73.4521C182.264 73.2831 181.918 73.0578 181.495 72.9513C181.072 72.8458 180.727 72.6348 180.727 72.4843C180.727 72.3337 180.622 72.2384 180.495 72.2733C180.21 72.3511 177.917 71.5973 177.496 71.288C177.327 71.163 176.463 70.824 175.575 70.5342Z" fill="#71A7D6"/>
    <path d="M199.257 79.5728C198.369 79.3506 197.791 79.0751 197.975 78.9614C198.349 78.7299 200.625 78.7842 201.334 79.0413C201.587 79.1335 203.419 79.7838 205.403 80.4854C207.388 81.188 209.933 82.243 211.06 82.8298C212.186 83.4177 213.299 83.8981 213.53 83.8981C213.763 83.8981 214.193 84.0189 214.487 84.1675C216.066 84.9663 217.443 85.4354 218.208 85.4354C218.88 85.4354 219.062 85.5747 219.044 86.0704C219.021 86.6604 222.838 88.4343 223.249 88.0236C223.856 87.4163 230.347 89.7115 230.718 90.664C230.861 91.0338 230.82 91.0492 230.51 90.7409C229.979 90.2154 229.216 90.2513 229.424 90.7931C229.778 91.7169 227.525 91.8767 226.294 91.0154C225.845 90.7009 224.717 90.1601 223.787 89.8129C222.856 89.4668 221.237 88.7549 220.19 88.2315C219.142 87.7092 218.206 87.2811 218.11 87.2811C218.014 87.2811 215.758 86.3705 213.095 85.2562C210.432 84.1429 207.701 83.0009 207.026 82.7192C206.352 82.4376 205.202 81.8947 204.473 81.5137C203.744 81.1337 202.946 80.8224 202.701 80.8224C202.456 80.8224 202.257 80.6759 202.257 80.4967C202.257 80.3174 202.112 80.2601 201.935 80.3686C201.759 80.4782 201.448 80.4352 201.244 80.2734C201.039 80.1116 200.146 79.7961 199.257 79.5728Z" fill="#71A7D6"/>
    <path d="M236.798 94.4946C233.513 93.3629 232.091 92.6367 232.091 92.0898C232.091 91.8409 234.673 91.9361 235.013 92.1973C235.182 92.3284 236.226 92.6582 237.333 92.9317C238.44 93.2051 240.586 94.045 242.101 94.7968C243.617 95.5485 245.548 96.3146 246.394 96.498C247.239 96.6813 248.138 96.9179 248.392 97.0234C249.948 97.6697 254.798 99.3371 255.312 99.4037C255.651 99.4467 256.412 99.7816 257.004 100.147C257.596 100.513 258.444 100.813 258.889 100.813C259.333 100.814 259.869 101.022 260.08 101.276C260.291 101.529 260.355 101.737 260.223 101.737C260.092 101.737 260.214 101.991 260.495 102.3C260.774 102.609 260.921 102.946 260.819 103.048C260.718 103.15 260.923 103.157 261.276 103.065C261.968 102.884 261.866 102.352 261.138 102.352C260.894 102.352 260.695 102.214 260.695 102.044C260.695 101.573 260.971 101.66 263.57 102.954C264.898 103.614 266.148 104.093 266.347 104.016C267.004 103.764 268.005 104.746 267.461 105.11C267.105 105.348 267.223 105.42 267.982 105.423C268.521 105.426 269.049 105.566 269.153 105.735C269.258 105.904 269.83 106.043 270.426 106.043C271.552 106.043 274.501 107.064 277.15 108.37C277.996 108.788 279.179 109.127 279.779 109.123C280.381 109.12 281.04 109.287 281.246 109.493C281.452 109.699 282.435 110.033 283.431 110.237C284.544 110.463 285.849 111.023 286.817 111.689C288.475 112.83 288.754 112.946 290.606 113.258C291.24 113.365 291.76 113.625 291.76 113.837C291.76 114.326 294.294 115.035 294.552 114.617C294.658 114.444 294.901 114.518 295.13 114.794C295.346 115.055 296.172 115.46 296.964 115.696C297.754 115.93 299.324 116.554 300.45 117.081C301.577 117.607 302.718 118.038 302.985 118.038C303.253 118.038 303.986 118.295 304.614 118.609C305.24 118.923 306.234 119.271 306.82 119.383C308.252 119.658 312.031 121.49 312.047 121.918C312.059 122.249 314.228 123.02 316.289 123.427C317.197 123.606 317.631 124.254 317.058 124.575C316.931 124.646 317.009 124.659 317.231 124.602C317.453 124.547 318.051 124.717 318.559 124.98C319.068 125.244 319.786 125.421 320.155 125.374C320.524 125.328 321.296 125.526 321.873 125.816C322.448 126.106 323.05 126.343 323.212 126.343C323.373 126.343 323.916 126.689 324.419 127.112C324.971 127.577 325.719 127.881 326.308 127.883C326.845 127.884 327.699 128.159 328.207 128.495C328.714 128.831 329.433 129.108 329.803 129.109C330.174 129.11 330.555 129.236 330.65 129.39C330.744 129.543 331.077 129.602 331.391 129.52C331.703 129.438 332.429 129.658 333.005 130.009C333.58 130.36 334.328 130.647 334.666 130.648C335.004 130.649 336.107 131.211 337.116 131.897C338.439 132.795 339.148 133.093 339.659 132.965C340.321 132.799 341.543 133.22 341.894 133.734C341.979 133.858 342.715 134.186 343.532 134.461C344.349 134.738 345.355 135.365 345.768 135.855C346.664 136.921 351.245 138.67 350.66 137.723C350.397 137.298 350.561 137.327 352.417 138.039C354.717 138.921 355.333 139.245 357.5 140.705C359.315 141.927 361.415 142.781 361.89 142.488C362.007 142.416 362.089 142.766 362.072 143.268C362.055 143.77 361.991 144.181 361.933 144.181C361.8 144.182 360.095 143.439 357.951 142.444C357.054 142.028 356.07 141.768 355.763 141.867C355.431 141.971 354.387 141.603 353.196 140.96C352.093 140.364 350.914 139.875 350.578 139.875C350.241 139.875 349.794 139.669 349.583 139.415C349.373 139.161 348.808 138.953 348.33 138.953C347.852 138.953 347.35 138.781 347.215 138.569C346.815 137.944 345.7 137.443 345.074 137.607C344.749 137.692 342.39 136.855 339.733 135.714C337.115 134.59 334.212 133.387 333.282 133.041C332.351 132.696 331.452 132.315 331.283 132.196C331.113 132.077 330.145 131.657 329.13 131.264C328.115 130.871 327.092 130.397 326.857 130.214C326.624 130.03 325.862 129.653 325.166 129.376C324.218 128.998 323.923 128.723 323.989 128.274C324.037 127.944 323.898 127.666 323.681 127.655C323.463 127.642 322.836 127.533 322.286 127.411C321.688 127.278 321.287 127.309 321.287 127.49C321.287 128.289 317.895 127.392 313.465 125.423C310.916 124.289 308.276 123.183 307.599 122.965C306.923 122.747 305.885 122.326 305.293 122.029C304.701 121.731 304.078 121.458 303.909 121.421C303.74 121.384 302.909 120.972 302.063 120.504C301.217 120.035 300.061 119.551 299.492 119.428C298.525 119.219 295.575 118.05 294.518 117.459C294.259 117.313 293.566 117.092 292.98 116.968C291.675 116.692 286.859 114.698 286.224 114.171C285.97 113.96 284.425 113.353 282.791 112.824C281.156 112.294 279.651 111.659 279.447 111.413C279.242 111.166 278.891 110.964 278.668 110.964C277.898 110.964 271.849 108.863 270.196 108.021C269.284 107.557 268.247 107.145 267.89 107.104C267.25 107.031 263.49 105.939 261.849 105.349C261.384 105.182 261.003 104.855 261.003 104.622C261.003 104.191 260.479 104.055 259.234 104.161C258.854 104.194 258.542 104.106 258.542 103.964C258.542 103.557 255.606 101.43 255.044 101.43C254.763 101.43 253.798 101.014 252.899 100.507C252 99.9987 250.999 99.5839 250.674 99.5829C250.035 99.5819 246.54 98.2176 244.471 97.1627C243.765 96.8032 242.896 96.5082 242.54 96.5082C242.184 96.5082 241.591 96.3464 241.221 96.1477C240.851 95.95 238.861 95.2054 236.798 94.4946Z" fill="#71A7D6"/>
    <path d="M44.0105 15.0316L49.6497 10.3706C49.6497 10.3706 49.8028 10.1254 50.1702 10.1701L51.4793 10.3166L56.9278 12.6036L53.0717 20.3525L44.0105 15.0316Z" fill="#FCFCFA"/>
    <path d="M54.951 16.5747L50.363 10.8163L51.3995 10.3069L51.4792 10.3156L56.9276 12.6025L54.951 16.5747Z" fill="#0B4A76"/>
    <path d="M50.3395 10.8269L50.6621 10.4527L62.8927 8.4927C62.8927 8.4927 63.8795 8.22716 64.9623 8.68413L66.9707 9.51963L56.3864 12.9639L50.3395 10.8269Z" fill="#FAAF2D"/>
    <path d="M62.5936 8.85647L50.3629 10.8166L50.3506 10.8309L56.386 12.9639L66.3119 9.7338L64.6631 9.04808C63.5803 8.5911 62.5936 8.85647 62.5936 8.85647Z" fill="#AB9774"/>
    <path d="M15.5392 10.1143L17.8157 11.4972C17.8157 11.4972 18.7562 12.0152 18.3222 13.8853L15.823 28.026C15.823 28.026 15.4757 29.2079 16.6086 29.5984L18.5683 30.084C18.5683 30.084 19.4248 30.4583 20.0213 29.7538L32.1156 18.3525C32.1156 18.3525 32.8449 17.7482 34.7097 18.2744L38.0842 19.0747L15.5392 10.1143Z" fill="#E7422A"/>
    <path d="M15.5392 10.1143L17.8157 11.4972C17.8157 11.4972 18.7562 12.0152 18.3222 13.8853L15.823 28.026C15.823 28.026 15.4757 29.2079 16.6086 29.5984L18.5683 30.084C18.5683 30.084 19.4248 30.4583 20.0213 29.7538L32.1156 18.3525C32.1156 18.3525 32.8449 17.7482 34.7097 18.2744L38.0842 19.0747L15.5392 10.1143Z" fill="#577ADA"/>
    <path d="M39.4727 19.5774L5.76916 6.26838C2.04914 4.26866 -0.633871 1.93692 0.130647 1.51969C4.90016 0.228952 7.80845 -0.488012 9.97826 0.382029L42.9822 14.001C47.697 16.0342 53.924 19.8836 53.4587 21.0447C52.9933 22.2054 42.0578 20.6953 39.4727 19.5774Z" fill="#FCFCFA"/>
    <path d="M51.4547 21.3857C51.454 21.3856 51.4535 21.3852 51.4529 21.3851C51.4535 21.3852 51.454 21.3856 51.4547 21.3857Z" fill="#AAB6B9"/>
    <path d="M51.4527 21.3843C51.1777 21.264 50.8242 21.114 50.4025 20.9382C46.6922 20.7558 40.9615 19.7877 39.1542 19.0036L4.10254 5.11646C3.35399 4.71259 2.64622 4.29605 1.99677 3.88334C2.41227 4.19782 2.88174 4.5274 3.39408 4.86202C1.35548 3.53101 -0.00121408 2.2795 8.15271e-07 1.73713C0.000174372 1.6415 0.0425227 1.56809 0.13069 1.52001L0.125829 1.5542C0.150301 1.55941 0.174772 1.56444 0.199244 1.56965C0.481794 1.76976 1.62918 2.53862 3.46229 3.20455C3.46229 3.20455 8.7936 4.5366 11.3685 5.56701C11.3685 5.56701 46.1094 19.0465 51.4527 21.3843Z" fill="#0B4A76"/>
    <path d="M0.197922 1.57056C0.173696 1.5654 0.14947 1.56042 0.125244 1.55527L0.130055 1.52142C0.130055 1.52142 0.152906 1.53877 0.197922 1.57056Z" fill="#9F3526"/>
    <path d="M3.4024 4.86792C3.40188 4.8674 3.40189 4.86766 3.40137 4.86714C3.40189 4.8674 3.40214 4.86766 3.4024 4.86792Z" fill="#AAB6B9"/>
    <path d="M15.6008 10.1516L5.76847 6.26897C4.91474 5.81009 4.11586 5.33385 3.40063 4.86716C4.11586 5.33368 4.91492 5.81009 5.76847 6.26897L15.6008 10.1516Z" fill="url(#paint0_linear_33_112)"/>
    <path d="M51.5839 21.4431C51.543 21.4249 51.4999 21.406 51.4547 21.3861C51.4999 21.406 51.543 21.4249 51.5839 21.4431ZM51.4528 21.3854C51.4524 21.3852 51.4526 21.3852 51.4523 21.385C51.4524 21.3852 51.4526 21.3852 51.4528 21.3854Z" fill="#AAB6B9"/>
    <path d="M3.39777 4.86548C3.39636 4.86454 3.39484 4.8636 3.39331 4.86254C3.39472 4.86348 3.39636 4.86454 3.39777 4.86548Z" fill="url(#paint1_linear_33_112)"/>
    <path d="M51.3792 21.4624C47.9683 21.4624 41.3997 20.411 39.4722 19.5776L20.707 12.1676L15.601 10.1512L5.76865 6.26855C4.91509 5.80966 4.11604 5.33325 3.40081 4.86673C3.40064 4.86656 3.40046 4.86638 3.40012 4.86621C3.39803 4.86482 3.3956 4.86326 3.39352 4.86187C2.88118 4.52725 2.41171 4.19767 1.99622 3.88318C2.64567 4.2959 3.35343 4.71244 4.10198 5.11631L39.1537 19.0034C40.9609 19.7876 46.6916 20.7557 50.4019 20.9381C50.8236 21.1139 51.1772 21.2639 51.4521 21.3841C51.4524 21.3843 51.4523 21.3843 51.4526 21.3845C51.4533 21.3846 51.4538 21.385 51.4545 21.3852C51.5002 21.4053 51.5437 21.4244 51.585 21.4428L51.6239 21.4605C51.5443 21.4619 51.4627 21.4624 51.3792 21.4624Z" fill="#144DDE"/>
    <path d="M23.3493 9.50677L56.9543 2.6584C56.9543 2.6584 58.0635 2.46939 58.6517 2.68912L58.9471 2.77607L61.8033 3.93872L61.6528 4.13797L37.5409 15.0609C37.5409 15.0609 37.053 15.4947 37.8552 16.0044L23.0456 9.95143C23.0456 9.95143 22.9726 9.6234 23.3493 9.50677Z" fill="#FCFCFA"/>
    <path d="M61.3499 4.27564L58.6462 3.17477L58.3507 3.08799C57.7625 2.86826 56.6531 3.05709 56.6531 3.05709L23.0482 9.90564L23.0405 9.9086C23.0421 9.93498 23.0456 9.95181 23.0456 9.95181L37.104 15.6978C37.1382 15.5508 37.2401 15.4598 37.2401 15.4598L37.3942 15.3899C37.3964 15.1903 37.5408 15.0613 37.5408 15.0613L61.3499 4.27564Z" fill="#FCFCFA"/>

</svg>
