<svg width="18" height="18" viewBox="0 0 18 18" fill="none" xmlns="http://www.w3.org/2000/svg">
<path d="M9 1.5C7.51664 1.5 6.0666 1.93987 4.83323 2.76398C3.59986 3.58809 2.63856 4.75943 2.07091 6.12987C1.50325 7.50032 1.35472 9.00832 1.64411 10.4632C1.9335 11.918 2.64781 13.2544 3.6967 14.3033C4.7456 15.3522 6.08197 16.0665 7.53683 16.3559C8.99168 16.6453 10.4997 16.4968 11.8701 15.9291C13.2406 15.3614 14.4119 14.4001 15.236 13.1668C16.0601 11.9334 16.5 10.4834 16.5 9C16.5 8.01509 16.306 7.03982 15.9291 6.12987C15.5522 5.21993 14.9997 4.39314 14.3033 3.6967C13.6069 3.00026 12.7801 2.44781 11.8701 2.0709C10.9602 1.69399 9.98492 1.5 9 1.5ZM13.5 8.85C13.5117 8.97962 13.4856 9.10984 13.425 9.225L11.85 12.9C11.7679 13.0874 11.6305 13.2452 11.4563 13.3524C11.2821 13.4596 11.0793 13.5111 10.875 13.5H6.75C6.35218 13.5 5.97065 13.342 5.68934 13.0607C5.40804 12.7794 5.25 12.3978 5.25 12V8.25C5.24251 8.1107 5.26547 7.97144 5.31728 7.84191C5.36909 7.71239 5.44851 7.59571 5.55 7.5L9 3.75L9.5175 4.2675C9.65376 4.40937 9.73374 4.59598 9.7425 4.7925V4.9425L9.3075 7.5H12.75C12.9489 7.5 13.1397 7.57902 13.2803 7.71967C13.421 7.86032 13.5 8.05109 13.5 8.25V8.85Z" fill="#888FB2"/>
</svg>
