<svg width="18" height="18" viewBox="0 0 18 18" fill="none" xmlns="http://www.w3.org/2000/svg">
<path fill-rule="evenodd" clip-rule="evenodd" d="M15.0795 15.465C15.0795 15.3907 14.9062 15.3164 14.6338 15.2917V7.46846C14.7329 7.44369 14.8318 7.36939 14.8813 7.2952C15.0794 7.02288 15.0546 6.6515 14.7823 6.45347L13.3959 5.38887C13.3959 5.38887 13.3712 5.3641 13.3464 5.3641L11.3657 4.34901C10.8459 4.07669 8.69198 4.05194 8.22164 4.37378L5.77067 5.93349C5.4736 6.10674 5.39929 6.50291 5.57265 6.79998L6.56298 8.45877C6.61251 8.55783 6.68681 8.63202 6.78576 8.68155L3.4189 15.0689C3.17135 14.9698 2.97323 14.945 2.92379 15.0193C2.89903 15.1184 3.02286 15.2669 3.22087 15.4155C3.17134 15.5145 3.1961 15.6135 3.29517 15.6878C3.39424 15.7373 3.51796 15.6878 3.56749 15.5887C3.79027 15.6878 4.01316 15.7126 4.03783 15.6383C4.08737 15.564 3.96353 15.3907 3.74076 15.2669L7.18216 8.75562C7.23169 8.73085 7.28123 8.70609 7.33076 8.68132C7.62783 8.55749 7.75167 8.21098 7.60308 7.91379L7.67738 7.76519C7.72691 7.69089 7.70214 7.56717 7.60308 7.51764C7.55354 7.49287 7.47925 7.49287 7.40506 7.51764L7.03367 6.7501L7.99924 6.20548V9.57234L6.90995 14.2515C6.41485 13.8801 6.04346 13.583 5.99394 13.5583C5.84534 13.4592 5.64732 13.484 5.54827 13.6326C5.42444 13.7812 5.47397 13.9792 5.59781 14.0783C5.64734 14.103 8.76675 16.4054 9.06377 16.6283C9.31132 16.8263 9.65795 16.9997 10.0045 16.9997C10.2026 16.9997 10.4007 16.9254 10.574 16.7769C10.7226 16.6531 10.7226 16.4303 10.5987 16.3065C10.4749 16.1827 10.2769 16.1827 10.1531 16.2818C9.97981 16.4304 9.63319 16.257 9.45984 16.1085C9.33601 16.0342 8.91521 15.7124 8.39523 15.3163C8.51906 15.2668 8.61801 15.1183 8.61801 14.9697C8.61801 14.7717 8.46942 14.6231 8.29615 14.5736C8.7665 13.0386 9.21216 11.5037 9.68251 9.99351L10.7966 11.9494L10.4995 14.128C10.0786 13.8309 9.75671 13.5834 9.7073 13.5586C9.5587 13.4595 9.36067 13.4843 9.26163 13.6329C9.16259 13.7815 9.18733 13.9795 9.33593 14.0786C9.3607 14.1033 12.48 16.4057 12.7773 16.6286C13.0249 16.8266 13.3715 17 13.7181 17C13.9161 17 14.139 16.9257 14.3123 16.7772C14.4361 16.6534 14.4361 16.4306 14.3123 16.3069C14.2132 16.183 13.9904 16.183 13.8666 16.2821C13.718 16.4307 13.3467 16.2573 13.1734 16.1088C13.0743 16.0345 12.604 15.6879 12.0594 15.2919C12.2079 15.2176 12.3069 15.0691 12.3069 14.9205C12.3069 14.673 12.1337 14.4996 11.9108 14.4996H11.886L12.4306 11.9248C12.4554 11.7762 12.4306 11.603 12.3563 11.4545L12.3316 11.4049L11.2669 9.20153V5.90892L12.7028 6.52786L14.1139 7.41911C14.1635 7.46864 14.213 7.46864 14.2625 7.49341V15.2921C13.9902 15.3169 13.8169 15.3912 13.8169 15.4654C13.8169 15.5644 13.9901 15.6386 14.2625 15.6634C14.2625 15.7625 14.3368 15.8614 14.4358 15.8614C14.5596 15.8614 14.6338 15.7623 14.6338 15.6634C14.9061 15.6386 15.0795 15.5643 15.0795 15.4654L15.0795 15.465ZM10.029 3.95269C10.846 4.05176 11.564 3.48235 11.663 2.6653C11.7621 1.84835 11.1679 1.10558 10.3756 1.00651C9.55871 0.93221 8.81593 1.50162 8.71686 2.31867C8.6178 3.13561 9.21197 3.87838 10.029 3.95269V3.95269Z" fill="#1A2038"/>
</svg>
