<svg width="16" height="16" viewBox="0 0 16 16" fill="none" xmlns="http://www.w3.org/2000/svg">
<path d="M1.33334 10.6667H11.3333V12.6667H1.33334V10.6667ZM13.6667 10.6667H14.6667V12.6667H13.6667V10.6667ZM12 10.6667H13V12.6667H12V10.6667ZM12.5667 5.15334C12.98 4.74667 13.2333 4.18667 13.2333 3.56667C13.2333 2.33334 12.2333 1.33334 11 1.33334V2.33334C11.68 2.33334 12.2333 2.88667 12.2333 3.56667C12.2333 4.24667 11.68 4.8 11 4.8V5.8C12.4933 5.8 13.6667 7.02 13.6667 8.51334V10H14.6667V8.50667C14.6667 7.02667 13.8133 5.74667 12.5667 5.15334ZM10.6867 6.8H9.66668C8.98668 6.8 8.43334 6.14667 8.43334 5.46667C8.43334 4.78667 8.98668 4.3 9.66668 4.3V3.3C8.43334 3.3 7.43334 4.3 7.43334 5.53334C7.43334 6.76667 8.43334 7.76667 9.66668 7.76667H10.6867C11.3867 7.76667 12 8.26 12 9.13334V10H13V8.90667C13 7.7 11.9333 6.8 10.6867 6.8Z" fill="#1A2038"/>
</svg>
