<svg width="16" height="16" viewBox="0 0 16 16" fill="none" xmlns="http://www.w3.org/2000/svg">
<path d="M10 1.00333H6V2.33666H10V1.00333ZM7.33333 9.66999H8.66667V5.66999H7.33333V9.66999ZM12.6867 5.25666L13.6333 4.30999C13.3467 3.96999 13.0333 3.64999 12.6933 3.36999L11.7467 4.31666C10.7133 3.48999 9.41333 2.99666 8 2.99666C4.68667 2.99666 2 5.68333 2 8.99666C2 12.31 4.68 14.9967 8 14.9967C11.32 14.9967 14 12.31 14 8.99666C14 7.58999 13.5067 6.28999 12.6867 5.25666ZM8 13.67C5.42 13.67 3.33333 11.5833 3.33333 9.00333C3.33333 6.42333 5.42 4.33666 8 4.33666C10.58 4.33666 12.6667 6.42333 12.6667 9.00333C12.6667 11.5833 10.58 13.67 8 13.67Z" fill="#FB8C00"/>
</svg>
