<svg width="16" height="16" viewBox="0 0 16 16" fill="none" xmlns="http://www.w3.org/2000/svg">
<path d="M10 1.00342H6V2.33675H10V1.00342ZM7.33333 9.67008H8.66667V5.67008H7.33333V9.67008ZM12.6867 5.25675L13.6333 4.31008C13.3467 3.97008 13.0333 3.65008 12.6933 3.37008L11.7467 4.31675C10.7133 3.49008 9.41333 2.99675 8 2.99675C4.68667 2.99675 2 5.68342 2 8.99675C2 12.3101 4.68 14.9967 8 14.9967C11.32 14.9967 14 12.3101 14 8.99675C14 7.59008 13.5067 6.29008 12.6867 5.25675ZM8 13.6701C5.42 13.6701 3.33333 11.5834 3.33333 9.00342C3.33333 6.42342 5.42 4.33675 8 4.33675C10.58 4.33675 12.6667 6.42342 12.6667 9.00342C12.6667 11.5834 10.58 13.6701 8 13.6701Z" fill="#FB8C00"/>
</svg>
